<svg width="378" height="314" viewBox="0 0 378 314" fill="none" xmlns="http://www.w3.org/2000/svg">
<g clip-path="url(#clip0_18933_365)">
<rect width="378" height="314" rx="30" fill="#271A58"/>
<rect x="0.202599" y="0.28958" width="105.961" height="141.448" rx="18.775" transform="matrix(0.984808 0.173648 -0.174411 0.984673 -47.8385 -107.011)" fill="#565EEF"/>
<rect x="0.202599" y="0.28958" width="105.961" height="141.448" rx="18.775" transform="matrix(0.984808 0.173648 -0.174411 0.984673 -47.8385 -107.011)" stroke="#271A58" stroke-width="0.5"/>
<rect x="0.202599" y="0.28958" width="105.961" height="141.448" rx="18.775" transform="matrix(0.984808 0.173648 -0.174411 0.984673 63.1595 -87.4398)" fill="#009EE4"/>
<rect x="0.202599" y="0.28958" width="105.961" height="141.448" rx="18.775" transform="matrix(0.984808 0.173648 -0.174411 0.984673 63.1595 -87.4398)" stroke="#271A58" stroke-width="0.5"/>
<mask id="path-5-outside-1_18933_365" maskUnits="userSpaceOnUse" x="84.0782" y="-28.782" width="35.9974" height="41.6423" fill="black">
<rect fill="white" x="84.0782" y="-28.782" width="35.9974" height="41.6423"/>
<path d="M98.0178 -3.62416C98.3033 -5.23623 98.8922 -6.49559 99.7843 -7.40223C100.682 -8.34111 101.92 -9.31985 103.497 -10.3385C104.586 -11.0441 105.408 -11.6473 105.962 -12.148C106.522 -12.681 106.862 -13.286 106.982 -13.9631C107.147 -14.8981 106.876 -15.7107 106.167 -16.401C105.496 -17.1178 104.531 -17.5871 103.274 -17.8088C101.984 -18.0362 100.753 -17.9375 99.5799 -17.5125C98.4396 -17.0819 97.4498 -16.3753 96.6108 -15.3928L90.0891 -20.5326C91.8109 -22.5564 93.9924 -23.9837 96.6336 -24.8147C99.2748 -25.6457 102.304 -25.7598 105.722 -25.1571C109.56 -24.4805 112.496 -23.1315 114.533 -21.1101C116.607 -19.1152 117.39 -16.683 116.881 -13.8135C116.647 -12.4916 116.213 -11.3546 115.579 -10.4024C114.95 -9.48257 114.251 -8.72483 113.48 -8.12923C112.748 -7.56019 111.805 -6.92854 110.651 -6.23428C109.389 -5.4926 108.44 -4.82871 107.804 -4.24261C107.174 -3.68876 106.782 -2.97657 106.627 -2.10605L98.0178 -3.62416ZM100.061 9.9025C98.4811 9.6239 97.2608 8.91 96.4003 7.76081C95.5454 6.57938 95.2436 5.27935 95.4949 3.86073C95.7519 2.40986 96.463 1.30506 97.6282 0.546321C98.8257 -0.206735 100.231 -0.441118 101.843 -0.156827C103.455 0.127464 104.694 0.828083 105.561 1.94503C106.427 3.06198 106.732 4.34588 106.475 5.79675C106.223 7.21537 105.493 8.33345 104.284 9.15099C103.081 9.93629 101.673 10.1868 100.061 9.9025Z"/>
</mask>
<path d="M98.0178 -3.62416C98.3033 -5.23623 98.8922 -6.49559 99.7843 -7.40223C100.682 -8.34111 101.92 -9.31985 103.497 -10.3385C104.586 -11.0441 105.408 -11.6473 105.962 -12.148C106.522 -12.681 106.862 -13.286 106.982 -13.9631C107.147 -14.8981 106.876 -15.7107 106.167 -16.401C105.496 -17.1178 104.531 -17.5871 103.274 -17.8088C101.984 -18.0362 100.753 -17.9375 99.5799 -17.5125C98.4396 -17.0819 97.4498 -16.3753 96.6108 -15.3928L90.0891 -20.5326C91.8109 -22.5564 93.9924 -23.9837 96.6336 -24.8147C99.2748 -25.6457 102.304 -25.7598 105.722 -25.1571C109.56 -24.4805 112.496 -23.1315 114.533 -21.1101C116.607 -19.1152 117.39 -16.683 116.881 -13.8135C116.647 -12.4916 116.213 -11.3546 115.579 -10.4024C114.95 -9.48257 114.251 -8.72483 113.48 -8.12923C112.748 -7.56019 111.805 -6.92854 110.651 -6.23428C109.389 -5.4926 108.44 -4.82871 107.804 -4.24261C107.174 -3.68876 106.782 -2.97657 106.627 -2.10605L98.0178 -3.62416ZM100.061 9.9025C98.4811 9.6239 97.2608 8.91 96.4003 7.76081C95.5454 6.57938 95.2436 5.27935 95.4949 3.86073C95.7519 2.40986 96.463 1.30506 97.6282 0.546321C98.8257 -0.206735 100.231 -0.441118 101.843 -0.156827C103.455 0.127464 104.694 0.828083 105.561 1.94503C106.427 3.06198 106.732 4.34588 106.475 5.79675C106.223 7.21537 105.493 8.33345 104.284 9.15099C103.081 9.93629 101.673 10.1868 100.061 9.9025Z" fill="white"/>
<path d="M98.0178 -3.62416L97.514 -3.713L97.4247 -3.20923L97.9286 -3.12039L98.0178 -3.62416ZM99.7843 -7.40223L100.149 -7.04358L100.154 -7.04886L99.7843 -7.40223ZM103.497 -10.3385L103.774 -9.90885L103.775 -9.90922L103.497 -10.3385ZM105.962 -12.148L106.305 -11.7685L106.315 -11.7777L105.962 -12.148ZM106.167 -16.401L105.793 -16.0513L105.801 -16.0426L105.81 -16.0344L106.167 -16.401ZM99.5799 -17.5125L99.4059 -17.9935L99.3994 -17.9911L99.5799 -17.5125ZM96.6108 -15.3928L96.2938 -14.991L96.6801 -14.6865L96.9998 -15.0608L96.6108 -15.3928ZM90.0891 -20.5326L89.6995 -20.8638L89.3553 -20.4593L89.7722 -20.1308L90.0891 -20.5326ZM96.6336 -24.8147L96.7869 -24.3268L96.7869 -24.3268L96.6336 -24.8147ZM114.533 -21.1101L114.172 -20.7469L114.178 -20.7413L114.533 -21.1101ZM115.579 -10.4024L116.001 -10.1141L116.005 -10.1191L115.579 -10.4024ZM113.48 -8.12923L113.168 -8.53384L113.167 -8.5331L113.48 -8.12923ZM110.651 -6.23429L110.91 -5.79332L110.914 -5.79605L110.651 -6.23429ZM107.804 -4.24261L108.142 -3.85843L108.151 -3.86664L107.804 -4.24261ZM106.627 -2.10605L106.538 -1.60228L107.042 -1.51344L107.131 -2.01721L106.627 -2.10605ZM96.4003 7.76081L95.9855 8.06086L95.9906 8.06757L96.4003 7.76081ZM97.6282 0.546321L97.356 0.11332L97.3492 0.117736L97.6282 0.546321ZM105.561 1.94503L105.156 2.25866L105.561 1.94503ZM104.284 9.15099L104.564 9.57933L104.571 9.57463L104.284 9.15099ZM98.5216 -3.53532C98.7943 -5.07465 99.3478 -6.2294 100.149 -7.04362L99.4197 -7.76084C98.4366 -6.76178 97.8124 -5.39782 97.514 -3.713L98.5216 -3.53532ZM100.154 -7.04886C101.015 -7.94914 102.217 -8.90325 103.774 -9.90885L103.219 -10.7681C101.622 -9.73646 100.349 -8.73308 99.4146 -7.75559L100.154 -7.04886ZM103.775 -9.90922C104.873 -10.6206 105.721 -11.241 106.305 -11.7686L105.619 -12.5274C105.095 -12.0536 104.299 -11.4676 103.219 -10.7677L103.775 -9.90922ZM106.315 -11.7777C106.944 -12.3762 107.344 -13.0765 107.486 -13.8743L106.478 -14.0519C106.379 -13.4956 106.1 -12.9858 105.609 -12.5184L106.315 -11.7777ZM107.486 -13.8743C107.682 -14.9844 107.348 -15.9652 106.524 -16.7676L105.81 -16.0344C106.403 -15.4562 106.613 -14.8119 106.478 -14.0519L107.486 -13.8743ZM106.54 -16.7507C105.774 -17.5696 104.697 -18.0774 103.363 -18.3126L103.184 -17.305C104.366 -17.0967 105.217 -16.666 105.793 -16.0513L106.54 -16.7507ZM103.363 -18.3126C101.989 -18.5548 100.667 -18.4505 99.4059 -17.9934L99.754 -17.0316C100.838 -17.4245 101.978 -17.5177 103.184 -17.305L103.363 -18.3126ZM99.3994 -17.9911C98.1735 -17.5281 97.1134 -16.7689 96.2217 -15.7248L96.9998 -15.0608C97.7863 -15.9818 98.7057 -16.6357 99.7605 -17.034L99.3994 -17.9911ZM96.9277 -15.7946L90.4061 -20.9344L89.7722 -20.1308L96.2938 -14.991L96.9277 -15.7946ZM90.4788 -20.2013C92.1354 -22.1485 94.2336 -23.5235 96.7869 -24.3268L96.4803 -25.3027C93.7513 -24.444 91.4865 -22.9642 89.6995 -20.8638L90.4788 -20.2013ZM96.7869 -24.3268C99.3322 -25.1276 102.276 -25.2454 105.633 -24.6534L105.812 -25.6609C102.333 -26.2743 99.2173 -26.1638 96.4803 -25.3027L96.7869 -24.3268ZM105.633 -24.6534C109.404 -23.9885 112.232 -22.6729 114.172 -20.7469L114.893 -21.4732C112.761 -23.5902 109.716 -24.9725 105.812 -25.6609L105.633 -24.6534ZM114.178 -20.7413C116.127 -18.8663 116.856 -16.6064 116.378 -13.9023L117.385 -13.7246C117.923 -16.7595 117.086 -19.364 114.887 -21.4788L114.178 -20.7413ZM116.378 -13.9023C116.154 -12.638 115.742 -11.5698 115.153 -10.6858L116.005 -10.1191C116.684 -11.1393 117.141 -12.3452 117.385 -13.7246L116.378 -13.9023ZM115.156 -10.6908C114.554 -9.80888 113.89 -9.09231 113.168 -8.53384L113.793 -7.72462C114.612 -8.35734 115.347 -9.15625 116.001 -10.1141L115.156 -10.6908ZM113.167 -8.5331C112.455 -7.98067 111.531 -7.36054 110.387 -6.67252L110.914 -5.79605C112.078 -6.49654 113.04 -7.13972 113.794 -7.72536L113.167 -8.5331ZM110.392 -6.67522C109.117 -5.92588 108.132 -5.24057 107.457 -4.61859L108.151 -3.86664C108.748 -4.41685 109.661 -5.05932 110.91 -5.79334L110.392 -6.67522ZM107.466 -4.62669C106.744 -3.99175 106.297 -3.17313 106.124 -2.19489L107.131 -2.01721C107.266 -2.78001 107.604 -3.38576 108.142 -3.85854L107.466 -4.62669ZM106.717 -2.60982L98.107 -4.12794L97.9286 -3.12039L106.538 -1.60228L106.717 -2.60982ZM100.15 9.39873C98.6821 9.13983 97.5833 8.48676 96.81 7.45405L95.9906 8.06757C96.9383 9.33324 98.2801 10.108 99.9719 10.4063L100.15 9.39873ZM96.8149 7.46079C96.0401 6.38994 95.772 5.22989 95.9988 3.94957L94.9911 3.77189C94.7153 5.32882 95.0508 6.76882 95.9856 8.06082L96.8149 7.46079ZM95.9988 3.94957C96.2327 2.62874 96.8685 1.65129 97.9073 0.974902L97.3492 0.117736C96.0575 0.958838 95.2711 2.19099 94.9911 3.77189L95.9988 3.94957ZM97.9005 0.979266C98.9736 0.304421 100.245 0.0809976 101.754 0.346946L101.932 -0.660599C100.216 -0.963232 98.6779 -0.717892 97.356 0.113373L97.9005 0.979266ZM101.754 0.346946C103.262 0.612894 104.38 1.25771 105.156 2.25866L105.965 1.6314C105.009 0.39845 103.648 -0.357966 101.932 -0.660599L101.754 0.346946ZM105.156 2.25866C105.93 3.25621 106.204 4.39248 105.971 5.70791L106.978 5.88559C107.259 4.29929 106.924 2.86775 105.965 1.6314L105.156 2.25866ZM105.971 5.70791C105.744 6.98822 105.094 7.98632 103.998 8.72734L104.571 9.57463C105.893 8.68058 106.703 7.44252 106.978 5.88559L105.971 5.70791ZM104.005 8.72271C102.926 9.42691 101.654 9.66385 100.15 9.39873L99.9719 10.4063C101.693 10.7097 103.236 10.4457 104.564 9.57927L104.005 8.72271Z" fill="#271A58" mask="url(#path-5-outside-1_18933_365)"/>
<rect x="0.202599" y="0.28958" width="105.961" height="141.448" rx="18.775" transform="matrix(0.984808 0.173648 -0.174411 0.984673 174.157 -67.8678)" fill="#AD61FF"/>
<rect x="0.202599" y="0.28958" width="105.961" height="141.448" rx="18.775" transform="matrix(0.984808 0.173648 -0.174411 0.984673 174.157 -67.8678)" stroke="#271A58" stroke-width="0.5"/>
<mask id="path-8-outside-2_18933_365" maskUnits="userSpaceOnUse" x="190.844" y="-14.2489" width="43.476" height="51.5463" fill="black">
<rect fill="white" x="190.844" y="-14.2489" width="43.476" height="51.5463"/>
<path d="M207.928 16.2637C208.282 14.2654 209.012 12.7044 210.118 11.5806C211.231 10.4168 212.764 9.20363 214.719 7.94102C216.07 7.06636 217.088 6.31869 217.775 5.69799C218.469 5.03733 218.891 4.28738 219.039 3.44812C219.245 2.28915 218.908 1.28186 218.029 0.426271C217.197 -0.46224 216.002 -1.04393 214.443 -1.31879C212.844 -1.6007 211.318 -1.47828 209.864 -0.951535C208.451 -0.417738 207.224 0.458082 206.184 1.67592L198.1 -4.69501C200.234 -7.20358 202.938 -8.97287 206.212 -10.0029C209.486 -11.0329 213.241 -11.1744 217.478 -10.4274C222.235 -9.58867 225.875 -7.91649 228.399 -5.41082C230.97 -2.93806 231.94 0.0767396 231.31 3.63359C231.02 5.27214 230.482 6.68151 229.696 7.86171C228.917 9.00194 228.05 9.94119 227.094 10.6795C226.186 11.3848 225.017 12.1678 223.587 13.0283C222.023 13.9477 220.846 14.7706 220.058 15.4971C219.277 16.1836 218.791 17.0664 218.6 18.1454L207.928 16.2637ZM210.461 33.0305C208.502 32.6852 206.99 31.8003 205.923 30.3758C204.863 28.9114 204.489 27.3 204.801 25.5415C205.119 23.7431 206.001 22.3737 207.445 21.4332C208.929 20.4997 210.671 20.2092 212.669 20.5616C214.668 20.914 216.204 21.7824 217.278 23.1669C218.352 24.5514 218.729 26.1429 218.411 27.9413C218.099 29.6997 217.194 31.0856 215.696 32.099C214.204 33.0724 212.459 33.3829 210.461 33.0305Z"/>
</mask>
<path d="M207.928 16.2637C208.282 14.2654 209.012 12.7044 210.118 11.5806C211.231 10.4168 212.764 9.20363 214.719 7.94102C216.07 7.06636 217.088 6.31869 217.775 5.69799C218.469 5.03733 218.891 4.28738 219.039 3.44812C219.245 2.28915 218.908 1.28186 218.029 0.426271C217.197 -0.46224 216.002 -1.04393 214.443 -1.31879C212.844 -1.6007 211.318 -1.47828 209.864 -0.951535C208.451 -0.417738 207.224 0.458082 206.184 1.67592L198.1 -4.69501C200.234 -7.20358 202.938 -8.97287 206.212 -10.0029C209.486 -11.0329 213.241 -11.1744 217.478 -10.4274C222.235 -9.58867 225.875 -7.91649 228.399 -5.41082C230.97 -2.93806 231.94 0.0767396 231.31 3.63359C231.02 5.27214 230.482 6.68151 229.696 7.86171C228.917 9.00194 228.05 9.94119 227.094 10.6795C226.186 11.3848 225.017 12.1678 223.587 13.0283C222.023 13.9477 220.846 14.7706 220.058 15.4971C219.277 16.1836 218.791 17.0664 218.6 18.1454L207.928 16.2637ZM210.461 33.0305C208.502 32.6852 206.99 31.8003 205.923 30.3758C204.863 28.9114 204.489 27.3 204.801 25.5415C205.119 23.7431 206.001 22.3737 207.445 21.4332C208.929 20.4997 210.671 20.2092 212.669 20.5616C214.668 20.914 216.204 21.7824 217.278 23.1669C218.352 24.5514 218.729 26.1429 218.411 27.9413C218.099 29.6997 217.194 31.0856 215.696 32.099C214.204 33.0724 212.459 33.3829 210.461 33.0305Z" fill="white"/>
<path d="M207.928 16.2637L207.424 16.1748L207.335 16.6786L207.839 16.7674L207.928 16.2637ZM210.118 11.5806L210.482 11.9393L210.487 11.934L210.118 11.5806ZM214.719 7.94102L214.997 8.37063L214.997 8.37027L214.719 7.94102ZM217.775 5.69799L218.118 6.07753L218.128 6.06835L217.775 5.69799ZM218.029 0.42627L217.655 0.775985L217.663 0.784633L217.672 0.792897L218.029 0.42627ZM209.864 -0.951536L209.69 -1.43249L209.684 -1.43006L209.864 -0.951536ZM206.184 1.67592L205.867 2.07774L206.253 2.38221L206.573 2.00792L206.184 1.67592ZM198.1 -4.69501L197.71 -5.02628L197.366 -4.62174L197.783 -4.2932L198.1 -4.69501ZM206.212 -10.0029L206.365 -9.51496L206.212 -10.0029ZM228.399 -5.41082L228.038 -5.04766L228.044 -5.04205L228.399 -5.41082ZM229.696 7.86171L230.118 8.15004L230.121 8.14502L229.696 7.86171ZM227.094 10.6795L226.782 10.2748L226.781 10.2756L227.094 10.6795ZM223.587 13.0283L223.846 13.4693L223.851 13.4666L223.587 13.0283ZM220.058 15.4971L220.396 15.8813L220.405 15.8731L220.058 15.4971ZM218.6 18.1454L218.511 18.6492L219.015 18.7381L219.104 18.2343L218.6 18.1454ZM205.923 30.3758L205.508 30.6759L205.513 30.6826L205.923 30.3758ZM207.445 21.4332L207.173 21.0002L207.166 21.0046L207.445 21.4332ZM217.278 23.1669L216.873 23.4806L217.278 23.1669ZM215.696 32.099L215.975 32.5274L215.982 32.5227L215.696 32.099ZM208.432 16.3525C208.773 14.427 209.467 12.9706 210.482 11.9392L209.753 11.222C208.556 12.4382 207.791 14.1039 207.424 16.1748L208.432 16.3525ZM210.487 11.934C211.563 10.8088 213.062 9.62024 214.997 8.37063L214.442 7.51141C212.467 8.78703 210.898 10.0249 209.748 11.2272L210.487 11.934ZM214.997 8.37027C216.356 7.48988 217.401 6.72499 218.118 6.0774L217.432 5.31858C216.775 5.91238 215.783 6.64285 214.441 7.51177L214.997 8.37027ZM218.128 6.06835C218.891 5.34213 219.373 4.49691 219.543 3.53696L218.535 3.35928C218.408 4.07784 218.048 4.73254 217.422 5.32763L218.128 6.06835ZM219.543 3.53696C219.779 2.20291 219.38 1.02737 218.386 0.0596434L217.672 0.792897C218.435 1.53636 218.71 2.37539 218.535 3.35928L219.543 3.53696ZM218.403 0.0765575C217.475 -0.914039 216.167 -1.53425 214.532 -1.82256L214.354 -0.815019C215.836 -0.5536 216.919 -0.0104411 217.655 0.775985L218.403 0.0765575ZM214.532 -1.82256C212.85 -2.11922 211.232 -1.99129 209.69 -1.43244L210.038 -0.470626C211.403 -0.965274 212.838 -1.08219 214.354 -0.815019L214.532 -1.82256ZM209.684 -1.43006C208.185 -0.863939 206.888 0.0645178 205.795 1.34393L206.573 2.00792C207.56 0.851645 208.717 0.0284633 210.045 -0.473007L209.684 -1.43006ZM206.501 1.2741L198.417 -5.09683L197.783 -4.2932L205.867 2.07774L206.501 1.2741ZM198.49 -4.36375C200.559 -6.7957 203.18 -8.51259 206.365 -9.51496L206.059 -10.4908C202.697 -9.43316 199.91 -7.61145 197.71 -5.02628L198.49 -4.36375ZM206.365 -9.51496C209.543 -10.5149 213.213 -10.6599 217.389 -9.92359L217.567 -10.9311C213.27 -11.6889 209.429 -11.551 206.059 -10.4908L206.365 -9.51496ZM217.389 -9.92359C222.079 -9.09668 225.61 -7.45784 228.038 -5.04771L228.759 -5.77393C226.139 -8.37514 222.391 -10.0807 217.567 -10.9311L217.389 -9.92359ZM228.044 -5.04205C230.49 -2.68917 231.407 0.15329 230.806 3.54475L231.814 3.72243C232.473 0.000189102 231.449 -3.18695 228.754 -5.77959L228.044 -5.04205ZM230.806 3.54475C230.526 5.12573 230.011 6.46627 229.27 7.5784L230.121 8.14502C230.953 6.89675 231.514 5.41854 231.814 3.72243L230.806 3.54475ZM229.273 7.5734C228.52 8.67563 227.689 9.57371 226.782 10.2748L227.407 11.0841C228.41 10.3087 229.313 9.32826 230.118 8.15002L229.273 7.5734ZM226.781 10.2756C225.894 10.9643 224.743 11.7358 223.323 12.5901L223.851 13.4666C225.291 12.5998 226.479 11.8053 227.408 11.0833L226.781 10.2756ZM223.328 12.5874C221.751 13.5144 220.539 14.3587 219.712 15.1211L220.405 15.8731C221.154 15.1824 222.295 14.3809 223.846 13.4693L223.328 12.5874ZM219.721 15.113C218.847 15.8806 218.306 16.8698 218.096 18.0566L219.104 18.2343C219.276 17.263 219.707 16.4866 220.396 15.8812L219.721 15.113ZM218.689 17.6417L208.017 15.7599L207.839 16.7674L218.511 18.6492L218.689 17.6417ZM210.55 32.5268C208.703 32.2011 207.312 31.3771 206.333 30.0691L205.513 30.6826C206.667 32.2235 208.301 33.1693 210.372 33.5343L210.55 32.5268ZM206.338 30.0758C205.358 28.722 205.018 27.2505 205.305 25.6304L204.297 25.4527C203.961 27.3494 204.369 29.1008 205.508 30.6758L206.338 30.0758ZM205.305 25.6304C205.6 23.962 206.406 22.7199 207.724 21.8617L207.166 21.0046C205.595 22.0274 204.638 23.5242 204.297 25.4527L205.305 25.6304ZM207.717 21.8661C209.077 21.0109 210.686 20.7313 212.58 21.0654L212.759 20.0578C210.656 19.6871 208.782 19.9886 207.173 21.0002L207.717 21.8661ZM212.58 21.0654C214.475 21.3994 215.89 22.2121 216.873 23.4806L217.682 22.8533C216.518 21.3528 214.861 20.4285 212.759 20.0578L212.58 21.0654ZM216.873 23.4806C217.854 24.7457 218.201 26.1895 217.907 27.8525L218.914 28.0301C219.257 26.0963 218.849 24.3572 217.682 22.8533L216.873 23.4806ZM217.907 27.8525C217.62 29.4726 216.795 30.7385 215.409 31.6754L215.982 32.5227C217.594 31.4328 218.578 29.9269 218.914 28.0301L217.907 27.8525ZM215.416 31.6707C214.049 32.563 212.44 32.86 210.55 32.5268L210.372 33.5343C212.479 33.9059 214.359 33.5818 215.975 32.5273L215.416 31.6707Z" fill="#271A58" mask="url(#path-8-outside-2_18933_365)"/>
<rect x="0.202599" y="0.28958" width="105.961" height="141.448" rx="18.775" transform="matrix(0.984808 0.173648 -0.174411 0.984673 285.155 -48.2959)" fill="#F25050"/>
<rect x="0.202599" y="0.28958" width="105.961" height="141.448" rx="18.775" transform="matrix(0.984808 0.173648 -0.174411 0.984673 285.155 -48.2959)" stroke="#271A58" stroke-width="0.5"/>
<mask id="path-11-outside-3_18933_365" maskUnits="userSpaceOnUse" x="301.842" y="5.32304" width="43.476" height="51.5463" fill="black">
<rect fill="white" x="301.842" y="5.32304" width="43.476" height="51.5463"/>
<path d="M318.926 35.8356C319.28 33.8373 320.01 32.2763 321.116 31.1525C322.229 29.9887 323.763 28.7755 325.717 27.5129C327.068 26.6383 328.086 25.8906 328.773 25.2699C329.467 24.6092 329.889 23.8593 330.037 23.02C330.243 21.861 329.906 20.8538 329.027 19.9982C328.195 19.1097 327 18.528 325.441 18.2531C323.842 17.9712 322.316 18.0936 320.862 18.6204C319.449 19.1542 318.222 20.03 317.182 21.2478L309.098 14.8769C311.232 12.3683 313.936 10.599 317.21 9.56899C320.484 8.53896 324.239 8.39747 328.476 9.14454C333.233 9.98323 336.873 11.6554 339.397 14.1611C341.968 16.6338 342.938 19.6486 342.308 23.2055C342.018 24.844 341.48 26.2534 340.694 27.4336C339.915 28.5738 339.048 29.5131 338.092 30.2514C337.184 30.9567 336.015 31.7397 334.585 32.6002C333.021 33.5196 331.845 34.3425 331.056 35.069C330.275 35.7555 329.789 36.6383 329.598 37.7173L318.926 35.8356ZM321.459 52.6024C319.5 52.2571 317.988 51.3722 316.921 49.9477C315.861 48.4833 315.487 46.8719 315.799 45.1134C316.117 43.315 316.999 41.9456 318.443 41.0051C319.927 40.0716 321.669 39.7811 323.667 40.1335C325.666 40.4859 327.202 41.3543 328.276 42.7388C329.35 44.1233 329.727 45.7148 329.409 47.5132C329.097 49.2716 328.192 50.6575 326.694 51.6709C325.202 52.6443 323.457 52.9548 321.459 52.6024Z"/>
</mask>
<path d="M318.926 35.8356C319.28 33.8373 320.01 32.2763 321.116 31.1525C322.229 29.9887 323.763 28.7755 325.717 27.5129C327.068 26.6383 328.086 25.8906 328.773 25.2699C329.467 24.6092 329.889 23.8593 330.037 23.02C330.243 21.861 329.906 20.8538 329.027 19.9982C328.195 19.1097 327 18.528 325.441 18.2531C323.842 17.9712 322.316 18.0936 320.862 18.6204C319.449 19.1542 318.222 20.03 317.182 21.2478L309.098 14.8769C311.232 12.3683 313.936 10.599 317.21 9.56899C320.484 8.53896 324.239 8.39747 328.476 9.14454C333.233 9.98323 336.873 11.6554 339.397 14.1611C341.968 16.6338 342.938 19.6486 342.308 23.2055C342.018 24.844 341.48 26.2534 340.694 27.4336C339.915 28.5738 339.048 29.5131 338.092 30.2514C337.184 30.9567 336.015 31.7397 334.585 32.6002C333.021 33.5196 331.845 34.3425 331.056 35.069C330.275 35.7555 329.789 36.6383 329.598 37.7173L318.926 35.8356ZM321.459 52.6024C319.5 52.2571 317.988 51.3722 316.921 49.9477C315.861 48.4833 315.487 46.8719 315.799 45.1134C316.117 43.315 316.999 41.9456 318.443 41.0051C319.927 40.0716 321.669 39.7811 323.667 40.1335C325.666 40.4859 327.202 41.3543 328.276 42.7388C329.35 44.1233 329.727 45.7148 329.409 47.5132C329.097 49.2716 328.192 50.6575 326.694 51.6709C325.202 52.6443 323.457 52.9548 321.459 52.6024Z" fill="white"/>
<path d="M318.926 35.8356L318.422 35.7467L318.333 36.2505L318.837 36.3393L318.926 35.8356ZM321.116 31.1525L321.48 31.5112L321.485 31.5059L321.116 31.1525ZM325.717 27.5129L325.995 27.9425L325.995 27.9422L325.717 27.5129ZM328.773 25.2699L329.116 25.6494L329.126 25.6403L328.773 25.2699ZM329.027 19.9982L328.653 20.3479L328.661 20.3565L328.67 20.3648L329.027 19.9982ZM320.862 18.6204L320.688 18.1394L320.682 18.1418L320.862 18.6204ZM317.182 21.2478L316.865 21.6496L317.251 21.9541L317.571 21.5798L317.182 21.2478ZM309.098 14.8769L308.708 14.5456L308.364 14.9502L308.781 15.2787L309.098 14.8769ZM317.21 9.56899L317.364 10.0569L317.21 9.56899ZM339.397 14.1611L339.036 14.5242L339.042 14.5298L339.397 14.1611ZM340.694 27.4336L341.116 27.7219L341.12 27.7169L340.694 27.4336ZM338.092 30.2514L337.78 29.8467L337.779 29.8475L338.092 30.2514ZM334.585 32.6002L334.844 33.0412L334.849 33.0385L334.585 32.6002ZM331.056 35.069L331.394 35.4532L331.403 35.445L331.056 35.069ZM329.598 37.7173L329.509 38.2211L330.013 38.31L330.102 37.8062L329.598 37.7173ZM316.921 49.9477L316.506 50.2478L316.511 50.2545L316.921 49.9477ZM318.443 41.0051L318.171 40.5721L318.164 40.5765L318.443 41.0051ZM328.276 42.7388L327.871 43.0525L328.276 42.7388ZM326.694 51.6709L326.973 52.0993L326.98 52.0946L326.694 51.6709ZM319.43 35.9244C319.771 33.9989 320.465 32.5425 321.48 31.5111L320.751 30.7939C319.554 32.0101 318.789 33.6758 318.422 35.7467L319.43 35.9244ZM321.485 31.5059C322.561 30.3807 324.06 29.1921 325.995 27.9425L325.44 27.0833C323.465 28.3589 321.896 29.5968 320.746 30.7991L321.485 31.5059ZM325.995 27.9422C327.354 27.0618 328.399 26.2969 329.116 25.6493L328.43 24.8905C327.773 25.4843 326.781 26.2147 325.439 27.0837L325.995 27.9422ZM329.126 25.6403C329.889 24.914 330.371 24.0688 330.541 23.1089L329.533 22.9312C329.406 23.6497 329.046 24.3044 328.421 24.8995L329.126 25.6403ZM330.541 23.1089C330.777 21.7748 330.378 20.5993 329.384 19.6315L328.67 20.3648C329.434 21.1083 329.708 21.9473 329.533 22.9312L330.541 23.1089ZM329.401 19.6485C328.473 18.6579 327.165 18.0376 325.53 17.7493L325.352 18.7569C326.834 19.0183 327.917 19.5615 328.653 20.3479L329.401 19.6485ZM325.53 17.7493C323.848 17.4527 322.23 17.5806 320.688 18.1395L321.036 19.1013C322.401 18.6066 323.836 18.4897 325.352 18.7569L325.53 17.7493ZM320.682 18.1418C319.183 18.708 317.886 19.6364 316.793 20.9158L317.571 21.5798C318.558 20.4235 319.715 19.6004 321.043 19.0989L320.682 18.1418ZM317.499 20.846L309.415 14.4751L308.781 15.2787L316.865 21.6496L317.499 20.846ZM309.488 15.2082C311.557 12.7762 314.178 11.0593 317.364 10.0569L317.057 9.08105C313.695 10.1387 310.908 11.9604 308.708 14.5456L309.488 15.2082ZM317.364 10.0569C320.542 9.05705 324.211 8.91197 328.387 9.64831L328.565 8.64077C324.268 7.88298 320.427 8.02087 317.057 9.08105L317.364 10.0569ZM328.387 9.64831C333.077 10.4752 336.608 12.1141 339.036 14.5242L339.757 13.798C337.137 11.1968 333.389 9.49124 328.565 8.64077L328.387 9.64831ZM339.042 14.5298C341.488 16.8827 342.405 19.7252 341.804 23.1166L342.812 23.2943C343.471 19.5721 342.447 16.3849 339.752 13.7923L339.042 14.5298ZM341.804 23.1166C341.524 24.6976 341.009 26.0382 340.268 27.1503L341.12 27.7169C341.951 26.4686 342.512 24.9904 342.812 23.2943L341.804 23.1166ZM340.271 27.1453C339.518 28.2475 338.687 29.1456 337.78 29.8467L338.405 30.656C339.408 29.8806 340.311 28.9002 341.116 27.7219L340.271 27.1453ZM337.779 29.8475C336.892 30.5362 335.741 31.3077 334.321 32.162L334.849 33.0385C336.289 32.1717 337.477 31.3772 338.406 30.6552L337.779 29.8475ZM334.326 32.1593C332.749 33.0863 331.537 33.9306 330.71 34.693L331.403 35.445C332.152 34.7543 333.293 33.9528 334.844 33.0412L334.326 32.1593ZM330.719 34.6849C329.845 35.4525 329.304 36.4417 329.094 37.6285L330.102 37.8062C330.274 36.8349 330.705 36.0585 331.394 35.4531L330.719 34.6849ZM329.687 37.2136L319.015 35.3318L318.837 36.3393L329.509 38.2211L329.687 37.2136ZM321.548 52.0987C319.701 51.773 318.31 50.949 317.331 49.641L316.511 50.2545C317.665 51.7954 319.299 52.7412 321.37 53.1062L321.548 52.0987ZM317.336 49.6477C316.356 48.2939 316.016 46.8224 316.303 45.2023L315.295 45.0246C314.959 46.9213 315.367 48.6727 316.506 50.2477L317.336 49.6477ZM316.303 45.2023C316.598 43.5339 317.404 42.2918 318.722 41.4336L318.164 40.5765C316.593 41.5993 315.637 43.0961 315.295 45.0246L316.303 45.2023ZM318.715 41.438C320.075 40.5828 321.684 40.3032 323.578 40.6373L323.757 39.6297C321.654 39.259 319.78 39.5605 318.171 40.5721L318.715 41.438ZM323.578 40.6373C325.473 40.9713 326.888 41.784 327.871 43.0525L328.68 42.4252C327.517 40.9247 325.859 40.0004 323.757 39.6297L323.578 40.6373ZM327.871 43.0525C328.852 44.3176 329.199 45.7614 328.905 47.4243L329.912 47.602C330.255 45.6682 329.847 43.9291 328.68 42.4252L327.871 43.0525ZM328.905 47.4243C328.618 49.0445 327.793 50.3104 326.407 51.2473L326.98 52.0946C328.592 51.0047 329.576 49.4988 329.912 47.602L328.905 47.4243ZM326.414 51.2426C325.047 52.1349 323.438 52.4319 321.548 52.0987L321.37 53.1062C323.477 53.4778 325.358 53.1537 326.973 52.0992L326.414 51.2426Z" fill="#271A58" mask="url(#path-11-outside-3_18933_365)"/>
<rect x="0.202599" y="0.28958" width="105.961" height="141.448" rx="18.775" transform="matrix(0.984808 0.173648 -0.174411 0.984673 396.153 -28.724)" fill="#009EE4"/>
<rect x="0.202599" y="0.28958" width="105.961" height="141.448" rx="18.775" transform="matrix(0.984808 0.173648 -0.174411 0.984673 396.153 -28.724)" stroke="#271A58" stroke-width="0.5"/>
<rect x="0.202599" y="0.28958" width="105.961" height="141.448" rx="18.775" transform="matrix(0.984808 0.173648 -0.174411 0.984673 -73.5529 38.8256)" fill="#1FA46C"/>
<rect x="0.202599" y="0.28958" width="105.961" height="141.448" rx="18.775" transform="matrix(0.984808 0.173648 -0.174411 0.984673 -73.5529 38.8256)" stroke="#271A58" stroke-width="0.5"/>
<rect x="0.202599" y="0.28958" width="105.961" height="141.448" rx="18.775" transform="matrix(0.984808 0.173648 -0.174411 0.984673 37.4447 58.3975)" fill="#F25050"/>
<rect x="0.202599" y="0.28958" width="105.961" height="141.448" rx="18.775" transform="matrix(0.984808 0.173648 -0.174411 0.984673 37.4447 58.3975)" stroke="#271A58" stroke-width="0.5"/>
<mask id="path-16-outside-4_18933_365" maskUnits="userSpaceOnUse" x="54.1319" y="112.016" width="43.476" height="51.5463" fill="black">
<rect fill="white" x="54.1319" y="112.016" width="43.476" height="51.5463"/>
<path d="M71.2156 142.529C71.5695 140.531 72.2994 138.97 73.4053 137.846C74.5182 136.682 76.0521 135.469 78.0069 134.206C79.3572 133.332 80.3758 132.584 81.0628 131.963C81.7569 131.303 82.1782 130.553 82.3269 129.713C82.5322 128.554 82.1953 127.547 81.3164 126.692C80.4846 125.803 79.2892 125.221 77.7304 124.946C76.1316 124.665 74.6054 124.787 73.1519 125.314C71.7384 125.848 70.5116 126.723 69.4715 127.941L61.3876 121.57C63.5219 119.062 66.226 117.292 69.4998 116.262C72.7736 115.232 76.529 115.091 80.7658 115.838C85.5222 116.677 89.1624 118.349 91.6863 120.854C94.2573 123.327 95.2277 126.342 94.5977 129.899C94.3075 131.537 93.7693 132.947 92.9832 134.127C92.2042 135.267 91.3371 136.206 90.382 136.945C89.4739 137.65 88.3048 138.433 86.8746 139.294C85.3103 140.213 84.1341 141.036 83.3459 141.762C82.5648 142.449 82.0787 143.332 81.8876 144.411L71.2156 142.529ZM73.7484 159.296C71.7899 158.95 70.2772 158.066 69.2106 156.641C68.151 155.177 67.7769 153.565 68.0884 151.807C68.4069 150.008 69.2884 148.639 70.7327 147.698C72.217 146.765 73.9585 146.474 75.957 146.827C77.9555 147.179 79.4916 148.048 80.5653 149.432C81.6391 150.817 82.0167 152.408 81.6982 154.207C81.3867 155.965 80.4817 157.351 78.9832 158.364C77.4918 159.338 75.7469 159.648 73.7484 159.296Z"/>
</mask>
<path d="M71.2156 142.529C71.5695 140.531 72.2994 138.97 73.4053 137.846C74.5182 136.682 76.0521 135.469 78.0069 134.206C79.3572 133.332 80.3758 132.584 81.0628 131.963C81.7569 131.303 82.1782 130.553 82.3269 129.713C82.5322 128.554 82.1953 127.547 81.3164 126.692C80.4846 125.803 79.2892 125.221 77.7304 124.946C76.1316 124.665 74.6054 124.787 73.1519 125.314C71.7384 125.848 70.5116 126.723 69.4715 127.941L61.3876 121.57C63.5219 119.062 66.226 117.292 69.4998 116.262C72.7736 115.232 76.529 115.091 80.7658 115.838C85.5222 116.677 89.1624 118.349 91.6863 120.854C94.2573 123.327 95.2277 126.342 94.5977 129.899C94.3075 131.537 93.7693 132.947 92.9832 134.127C92.2042 135.267 91.3371 136.206 90.382 136.945C89.4739 137.65 88.3048 138.433 86.8746 139.294C85.3103 140.213 84.1341 141.036 83.3459 141.762C82.5648 142.449 82.0787 143.332 81.8876 144.411L71.2156 142.529ZM73.7484 159.296C71.7899 158.95 70.2772 158.066 69.2106 156.641C68.151 155.177 67.7769 153.565 68.0884 151.807C68.4069 150.008 69.2884 148.639 70.7327 147.698C72.217 146.765 73.9585 146.474 75.957 146.827C77.9555 147.179 79.4916 148.048 80.5653 149.432C81.6391 150.817 82.0167 152.408 81.6982 154.207C81.3867 155.965 80.4817 157.351 78.9832 158.364C77.4918 159.338 75.7469 159.648 73.7484 159.296Z" fill="white"/>
<path d="M71.2156 142.529L70.7117 142.44L70.6225 142.944L71.1263 143.033L71.2156 142.529ZM73.4053 137.846L73.7699 138.205L73.775 138.199L73.4053 137.846ZM78.0069 134.206L78.2843 134.636L78.2849 134.636L78.0069 134.206ZM81.0628 131.963L81.4058 132.343L81.4155 132.334L81.0628 131.963ZM81.3164 126.692L80.9427 127.041L80.9508 127.05L80.9593 127.058L81.3164 126.692ZM73.1519 125.314L72.9778 124.833L72.9714 124.835L73.1519 125.314ZM69.4715 127.941L69.1545 128.343L69.5409 128.647L69.8605 128.273L69.4715 127.941ZM61.3876 121.57L60.998 121.239L60.6538 121.644L61.0707 121.972L61.3876 121.57ZM69.4998 116.262L69.6531 116.75L69.4998 116.262ZM91.6863 120.854L91.3256 121.218L91.3314 121.223L91.6863 120.854ZM92.9832 134.127L93.4057 134.415L93.4091 134.41L92.9832 134.127ZM90.382 136.945L90.0692 136.54L90.0682 136.541L90.382 136.945ZM86.8746 139.294L87.1337 139.735L87.1382 139.732L86.8746 139.294ZM83.3459 141.762L83.6837 142.147L83.6926 142.138L83.3459 141.762ZM81.8876 144.411L81.7983 144.914L82.3022 145.003L82.3914 144.5L81.8876 144.411ZM69.2106 156.641L68.7958 156.941L68.8009 156.948L69.2106 156.641ZM70.7327 147.698L70.4605 147.265L70.4537 147.27L70.7327 147.698ZM80.5653 149.432L80.1609 149.746L80.5653 149.432ZM78.9832 158.364L79.2628 158.793L79.2697 158.788L78.9832 158.364ZM71.7194 142.618C72.0605 140.692 72.755 139.236 73.7699 138.204L73.0406 137.487C71.8438 138.703 71.0785 140.369 70.7117 142.44L71.7194 142.618ZM73.775 138.199C74.851 137.074 76.3497 135.885 78.2843 134.636L77.7294 133.777C75.7545 135.052 74.1854 136.29 73.0355 137.493L73.775 138.199ZM78.2849 134.636C79.644 133.755 80.6889 132.99 81.4057 132.343L80.7199 131.584C80.0626 132.178 79.0703 132.908 77.7289 133.777L78.2849 134.636ZM81.4155 132.334C82.1784 131.607 82.6607 130.762 82.8307 129.802L81.823 129.625C81.6958 130.343 81.3353 130.998 80.7101 131.593L81.4155 132.334ZM82.8307 129.802C83.067 128.468 82.6676 127.293 81.6735 126.325L80.9593 127.058C81.7231 127.802 81.9973 128.641 81.823 129.625L82.8307 129.802ZM81.6901 126.342C80.7627 125.351 79.4547 124.731 77.8196 124.443L77.6412 125.45C79.1237 125.712 80.2065 126.255 80.9427 127.041L81.6901 126.342ZM77.8196 124.443C76.1372 124.146 74.5199 124.274 72.9779 124.833L73.326 125.795C74.6909 125.3 76.126 125.183 77.6412 125.45L77.8196 124.443ZM72.9714 124.835C71.4723 125.401 70.1751 126.33 69.0825 127.609L69.8605 128.273C70.848 127.117 72.0045 126.294 73.3324 125.792L72.9714 124.835ZM69.7885 127.539L61.7046 121.168L61.0707 121.972L69.1545 128.343L69.7885 127.539ZM61.7773 121.902C63.8464 119.47 66.4672 117.753 69.6531 116.75L69.3465 115.774C65.9848 116.832 63.1974 118.654 60.998 121.239L61.7773 121.902ZM69.6531 116.75C72.8311 115.75 76.5005 115.605 80.6766 116.342L80.855 115.334C76.5574 114.576 72.7162 114.714 69.3465 115.774L69.6531 116.75ZM80.6766 116.342C85.3662 117.169 88.898 118.807 91.3256 121.218L92.047 120.491C89.4268 117.89 85.6783 116.185 80.855 115.334L80.6766 116.342ZM91.3314 121.223C93.7777 123.576 94.6946 126.419 94.0939 129.81L95.1016 129.988C95.7609 126.265 94.7368 123.078 92.0412 120.486L91.3314 121.223ZM94.0939 129.81C93.8138 131.391 93.2982 132.732 92.5574 133.844L93.4091 134.41C94.2405 133.162 94.8011 131.684 95.1016 129.988L94.0939 129.81ZM92.5608 133.839C91.8077 134.941 90.9763 135.839 90.0692 136.54L90.6948 137.349C91.698 136.574 92.6007 135.594 93.4057 134.415L92.5608 133.839ZM90.0682 136.541C89.1815 137.23 88.0308 138.001 86.6109 138.855L87.1382 139.732C88.5788 138.865 89.7663 138.071 90.6957 137.349L90.0682 136.541ZM86.6155 138.853C85.0382 139.78 83.8263 140.624 82.9992 141.386L83.6926 142.138C84.4418 141.448 85.5824 140.646 87.1336 139.735L86.6155 138.853ZM83.0082 141.378C82.1349 142.146 81.5939 143.135 81.3837 144.322L82.3914 144.5C82.5635 143.528 82.9948 142.752 83.6836 142.146L83.0082 141.378ZM81.9768 143.907L71.3048 142.025L71.1263 143.033L81.7983 144.914L81.9768 143.907ZM73.8376 158.792C71.9909 158.466 70.5997 157.642 69.6203 156.334L68.8009 156.948C69.9548 158.489 71.5888 159.435 73.6592 159.8L73.8376 158.792ZM69.6252 156.341C68.6456 154.987 68.3052 153.516 68.5922 151.896L67.5845 151.718C67.2486 153.615 67.6563 155.366 68.7959 156.941L69.6252 156.341ZM68.5922 151.896C68.8877 150.227 69.6939 148.985 71.0118 148.127L70.4537 147.27C68.8828 148.293 67.9261 149.789 67.5845 151.718L68.5922 151.896ZM71.0049 148.131C72.3649 147.276 73.9732 146.997 75.8677 147.331L76.0462 146.323C73.9437 145.952 72.0692 146.254 70.4605 147.265L71.0049 148.131ZM75.8677 147.331C77.7622 147.665 79.1771 148.477 80.1609 149.746L80.9698 149.119C79.8061 147.618 78.1487 146.694 76.0462 146.323L75.8677 147.331ZM80.1609 149.746C81.142 151.011 81.4889 152.455 81.1943 154.118L82.202 154.295C82.5445 152.362 82.1362 150.622 80.9698 149.119L80.1609 149.746ZM81.1943 154.118C80.9074 155.738 80.0821 157.004 78.6968 157.941L79.2697 158.788C80.8814 157.698 81.866 156.192 82.202 154.295L81.1943 154.118ZM78.7037 157.936C77.3366 158.828 75.7274 159.125 73.8376 158.792L73.6592 159.8C75.7664 160.171 77.6471 159.847 79.2627 158.793L78.7037 157.936Z" fill="#271A58" mask="url(#path-16-outside-4_18933_365)"/>
<rect x="0.202599" y="0.28958" width="105.961" height="141.448" rx="18.775" transform="matrix(0.984808 0.173648 -0.174411 0.984673 148.443 77.9695)" fill="#009EE4"/>
<rect x="0.202599" y="0.28958" width="105.961" height="141.448" rx="18.775" transform="matrix(0.984808 0.173648 -0.174411 0.984673 148.443 77.9695)" stroke="#271A58" stroke-width="0.5"/>
<mask id="path-19-outside-5_18933_365" maskUnits="userSpaceOnUse" x="169.361" y="136.627" width="35.9974" height="41.6423" fill="black">
<rect fill="white" x="169.361" y="136.627" width="35.9974" height="41.6423"/>
<path d="M183.301 161.785C183.587 160.173 184.175 158.914 185.068 158.007C185.965 157.068 187.203 156.089 188.78 155.071C189.869 154.365 190.691 153.762 191.245 153.261C191.805 152.728 192.145 152.123 192.265 151.446C192.431 150.511 192.159 149.699 191.45 149.008C190.779 148.292 189.814 147.822 188.557 147.6C187.267 147.373 186.036 147.472 184.863 147.897C183.723 148.327 182.733 149.034 181.894 150.016L175.372 144.877C177.094 142.853 179.276 141.426 181.917 140.595C184.558 139.764 187.588 139.649 191.006 140.252C194.843 140.929 197.78 142.278 199.816 144.299C201.89 146.294 202.673 148.726 202.165 151.596C201.93 152.918 201.496 154.055 200.862 155.007C200.234 155.927 199.534 156.684 198.764 157.28C198.031 157.849 197.088 158.481 195.934 159.175C194.672 159.917 193.723 160.581 193.087 161.167C192.457 161.721 192.065 162.433 191.911 163.303L183.301 161.785ZM185.344 175.312C183.764 175.033 182.544 174.319 181.683 173.17C180.829 171.989 180.527 170.689 180.778 169.27C181.035 167.819 181.746 166.714 182.911 165.956C184.109 165.203 185.514 164.968 187.126 165.252C188.738 165.537 189.978 166.237 190.844 167.354C191.71 168.471 192.015 169.755 191.758 171.206C191.507 172.625 190.776 173.743 189.568 174.56C188.364 175.346 186.957 175.596 185.344 175.312Z"/>
</mask>
<path d="M183.301 161.785C183.587 160.173 184.175 158.914 185.068 158.007C185.965 157.068 187.203 156.089 188.78 155.071C189.869 154.365 190.691 153.762 191.245 153.261C191.805 152.728 192.145 152.123 192.265 151.446C192.431 150.511 192.159 149.699 191.45 149.008C190.779 148.292 189.814 147.822 188.557 147.6C187.267 147.373 186.036 147.472 184.863 147.897C183.723 148.327 182.733 149.034 181.894 150.016L175.372 144.877C177.094 142.853 179.276 141.426 181.917 140.595C184.558 139.764 187.588 139.649 191.006 140.252C194.843 140.929 197.78 142.278 199.816 144.299C201.89 146.294 202.673 148.726 202.165 151.596C201.93 152.918 201.496 154.055 200.862 155.007C200.234 155.927 199.534 156.684 198.764 157.28C198.031 157.849 197.088 158.481 195.934 159.175C194.672 159.917 193.723 160.581 193.087 161.167C192.457 161.721 192.065 162.433 191.911 163.303L183.301 161.785ZM185.344 175.312C183.764 175.033 182.544 174.319 181.683 173.17C180.829 171.989 180.527 170.689 180.778 169.27C181.035 167.819 181.746 166.714 182.911 165.956C184.109 165.203 185.514 164.968 187.126 165.252C188.738 165.537 189.978 166.237 190.844 167.354C191.71 168.471 192.015 169.755 191.758 171.206C191.507 172.625 190.776 173.743 189.568 174.56C188.364 175.346 186.957 175.596 185.344 175.312Z" fill="white"/>
<path d="M183.301 161.785L182.797 161.696L182.708 162.2L183.212 162.289L183.301 161.785ZM185.068 158.007L185.432 158.366L185.437 158.36L185.068 158.007ZM188.78 155.071L189.057 155.5L189.058 155.5L188.78 155.071ZM191.245 153.261L191.588 153.641L191.598 153.632L191.245 153.261ZM191.45 149.008L191.076 149.358L191.084 149.367L191.093 149.375L191.45 149.008ZM184.863 147.897L184.689 147.416L184.683 147.418L184.863 147.897ZM181.894 150.016L181.577 150.418L181.963 150.723L182.283 150.348L181.894 150.016ZM175.372 144.877L174.983 144.545L174.638 144.95L175.055 145.279L175.372 144.877ZM181.917 140.595L182.07 141.083L182.07 141.083L181.917 140.595ZM199.816 144.299L199.455 144.662L199.461 144.668L199.816 144.299ZM200.862 155.007L201.285 155.295L201.288 155.29L200.862 155.007ZM198.764 157.28L198.451 156.875L198.45 156.876L198.764 157.28ZM195.934 159.175L196.193 159.616L196.198 159.613L195.934 159.175ZM193.087 161.167L193.425 161.551L193.434 161.543L193.087 161.167ZM191.911 163.303L191.821 163.807L192.325 163.896L192.414 163.392L191.911 163.303ZM181.683 173.17L181.269 173.47L181.274 173.477L181.683 173.17ZM182.911 165.956L182.639 165.523L182.632 165.527L182.911 165.956ZM190.844 167.354L190.439 167.668L190.844 167.354ZM189.568 174.56L189.847 174.989L189.854 174.984L189.568 174.56ZM183.805 161.874C184.077 160.335 184.631 159.18 185.432 158.366L184.703 157.648C183.72 158.648 183.096 160.011 182.797 161.696L183.805 161.874ZM185.437 158.36C186.298 157.46 187.5 156.506 189.057 155.5L188.502 154.641C186.905 155.673 185.633 156.676 184.698 157.654L185.437 158.36ZM189.058 155.5C190.156 154.789 191.004 154.168 191.588 153.641L190.902 152.882C190.378 153.356 189.582 153.942 188.502 154.642L189.058 155.5ZM191.598 153.632C192.227 153.033 192.628 152.333 192.769 151.535L191.761 151.357C191.663 151.914 191.384 152.423 190.893 152.891L191.598 153.632ZM192.769 151.535C192.966 150.425 192.631 149.444 191.807 148.642L191.093 149.375C191.687 149.953 191.896 150.597 191.761 151.357L192.769 151.535ZM191.824 148.659C191.057 147.84 189.98 147.332 188.646 147.097L188.468 148.104C189.649 148.313 190.501 148.743 191.076 149.358L191.824 148.659ZM188.646 147.097C187.273 146.855 185.95 146.959 184.689 147.416L185.037 148.378C186.121 147.985 187.261 147.892 188.468 148.104L188.646 147.097ZM184.683 147.418C183.457 147.881 182.397 148.64 181.505 149.684L182.283 150.348C183.07 149.428 183.989 148.774 185.044 148.375L184.683 147.418ZM182.211 149.615L175.689 144.475L175.055 145.279L181.577 150.418L182.211 149.615ZM175.762 145.208C177.419 143.261 179.517 141.886 182.07 141.083L181.764 140.107C179.034 140.965 176.77 142.445 174.983 144.545L175.762 145.208ZM182.07 141.083C184.615 140.282 187.559 140.164 190.916 140.756L191.095 139.748C187.616 139.135 184.5 139.246 181.764 140.107L182.07 141.083ZM190.916 140.756C194.687 141.421 197.515 142.736 199.455 144.662L200.176 143.936C198.044 141.819 194.999 140.437 191.095 139.748L190.916 140.756ZM199.461 144.668C201.41 146.543 202.14 148.803 201.661 151.507L202.668 151.685C203.206 148.65 202.369 146.045 200.171 143.93L199.461 144.668ZM201.661 151.507C201.437 152.771 201.025 153.839 200.436 154.724L201.288 155.29C201.967 154.27 202.424 153.064 202.668 151.685L201.661 151.507ZM200.44 154.719C199.837 155.6 199.173 156.317 198.451 156.875L199.076 157.685C199.895 157.052 200.63 156.253 201.285 155.295L200.44 154.719ZM198.45 156.876C197.739 157.429 196.814 158.049 195.67 158.737L196.198 159.613C197.362 158.913 198.323 158.27 199.077 157.684L198.45 156.876ZM195.675 158.734C194.4 159.483 193.415 160.169 192.74 160.791L193.434 161.543C194.031 160.992 194.944 160.35 196.193 159.616L195.675 158.734ZM192.749 160.783C192.027 161.418 191.58 162.236 191.407 163.214L192.414 163.392C192.55 162.629 192.887 162.024 193.425 161.551L192.749 160.783ZM192 162.799L183.39 161.281L183.212 162.289L191.821 163.807L192 162.799ZM185.434 174.808C183.965 174.549 182.866 173.896 182.093 172.863L181.274 173.477C182.222 174.743 183.563 175.517 185.255 175.816L185.434 174.808ZM182.098 172.87C181.323 171.799 181.055 170.639 181.282 169.359L180.274 169.181C179.999 170.738 180.334 172.178 181.269 173.47L182.098 172.87ZM181.282 169.359C181.516 168.038 182.152 167.061 183.19 166.384L182.632 165.527C181.341 166.368 180.554 167.6 180.274 169.181L181.282 169.359ZM183.184 166.389C184.257 165.714 185.529 165.49 187.037 165.756L187.215 164.749C185.499 164.446 183.961 164.691 182.639 165.523L183.184 166.389ZM187.037 165.756C188.545 166.022 189.663 166.667 190.439 167.668L191.248 167.041C190.292 165.808 188.932 165.051 187.215 164.749L187.037 165.756ZM190.439 167.668C191.213 168.666 191.487 169.802 191.254 171.117L192.262 171.295C192.543 169.709 192.207 168.277 191.248 167.041L190.439 167.668ZM191.254 171.117C191.027 172.398 190.377 173.396 189.281 174.137L189.854 174.984C191.176 174.09 191.986 172.852 192.262 171.295L191.254 171.117ZM189.288 174.132C188.209 174.836 186.937 175.073 185.434 174.808L185.255 175.816C186.976 176.119 188.52 175.855 189.847 174.989L189.288 174.132Z" fill="#271A58" mask="url(#path-19-outside-5_18933_365)"/>
<rect x="0.202599" y="0.28958" width="105.961" height="141.448" rx="18.775" transform="matrix(0.984808 0.173648 -0.174411 0.984673 259.44 97.5414)" fill="#99D100"/>
<rect x="0.202599" y="0.28958" width="105.961" height="141.448" rx="18.775" transform="matrix(0.984808 0.173648 -0.174411 0.984673 259.44 97.5414)" stroke="#271A58" stroke-width="0.5"/>
<mask id="path-22-outside-6_18933_365" maskUnits="userSpaceOnUse" x="276.127" y="151.16" width="43.476" height="51.5463" fill="black">
<rect fill="white" x="276.127" y="151.16" width="43.476" height="51.5463"/>
<path d="M293.211 181.673C293.565 179.675 294.295 178.114 295.401 176.99C296.514 175.826 298.048 174.613 300.003 173.35C301.353 172.476 302.371 171.728 303.058 171.107C303.752 170.447 304.174 169.697 304.322 168.857C304.528 167.698 304.191 166.691 303.312 165.835C302.48 164.947 301.285 164.365 299.726 164.09C298.127 163.808 296.601 163.931 295.148 164.458C293.734 164.991 292.507 165.867 291.467 167.085L283.383 160.714C285.518 158.206 288.222 156.436 291.495 155.406C294.769 154.376 298.525 154.235 302.761 154.982C307.518 155.821 311.158 157.493 313.682 159.998C316.253 162.471 317.223 165.486 316.593 169.043C316.303 170.681 315.765 172.091 314.979 173.271C314.2 174.411 313.333 175.35 312.378 176.089C311.47 176.794 310.3 177.577 308.87 178.438C307.306 179.357 306.13 180.18 305.342 180.906C304.56 181.593 304.074 182.476 303.883 183.555L293.211 181.673ZM295.744 198.44C293.785 198.094 292.273 197.209 291.206 195.785C290.147 194.321 289.773 192.709 290.084 190.951C290.403 189.152 291.284 187.783 292.728 186.842C294.213 185.909 295.954 185.618 297.953 185.971C299.951 186.323 301.487 187.192 302.561 188.576C303.635 189.961 304.012 191.552 303.694 193.35C303.382 195.109 302.477 196.495 300.979 197.508C299.487 198.482 297.742 198.792 295.744 198.44Z"/>
</mask>
<path d="M293.211 181.673C293.565 179.675 294.295 178.114 295.401 176.99C296.514 175.826 298.048 174.613 300.003 173.35C301.353 172.476 302.371 171.728 303.058 171.107C303.752 170.447 304.174 169.697 304.322 168.857C304.528 167.698 304.191 166.691 303.312 165.835C302.48 164.947 301.285 164.365 299.726 164.09C298.127 163.808 296.601 163.931 295.148 164.458C293.734 164.991 292.507 165.867 291.467 167.085L283.383 160.714C285.518 158.206 288.222 156.436 291.495 155.406C294.769 154.376 298.525 154.235 302.761 154.982C307.518 155.821 311.158 157.493 313.682 159.998C316.253 162.471 317.223 165.486 316.593 169.043C316.303 170.681 315.765 172.091 314.979 173.271C314.2 174.411 313.333 175.35 312.378 176.089C311.47 176.794 310.3 177.577 308.87 178.438C307.306 179.357 306.13 180.18 305.342 180.906C304.56 181.593 304.074 182.476 303.883 183.555L293.211 181.673ZM295.744 198.44C293.785 198.094 292.273 197.209 291.206 195.785C290.147 194.321 289.773 192.709 290.084 190.951C290.403 189.152 291.284 187.783 292.728 186.842C294.213 185.909 295.954 185.618 297.953 185.971C299.951 186.323 301.487 187.192 302.561 188.576C303.635 189.961 304.012 191.552 303.694 193.35C303.382 195.109 302.477 196.495 300.979 197.508C299.487 198.482 297.742 198.792 295.744 198.44Z" fill="white"/>
<path d="M293.211 181.673L292.707 181.584L292.618 182.088L293.122 182.177L293.211 181.673ZM295.401 176.99L295.766 177.348L295.771 177.343L295.401 176.99ZM300.003 173.35L300.28 173.78L300.281 173.779L300.003 173.35ZM303.058 171.107L303.401 171.487L303.411 171.478L303.058 171.107ZM303.312 165.835L302.938 166.185L302.946 166.194L302.955 166.202L303.312 165.835ZM295.148 164.458L294.973 163.977L294.967 163.979L295.148 164.458ZM291.467 167.085L291.15 167.487L291.536 167.791L291.856 167.417L291.467 167.085ZM283.383 160.714L282.994 160.383L282.649 160.787L283.066 161.116L283.383 160.714ZM291.495 155.406L291.649 155.894L291.495 155.406ZM313.682 159.998L313.321 160.362L313.327 160.367L313.682 159.998ZM314.979 173.271L315.401 173.559L315.405 173.554L314.979 173.271ZM312.378 176.089L312.065 175.684L312.064 175.685L312.378 176.089ZM308.87 178.437L309.129 178.878L309.134 178.876L308.87 178.437ZM305.342 180.906L305.679 181.29L305.688 181.282L305.342 180.906ZM303.883 183.555L303.794 184.058L304.298 184.147L304.387 183.643L303.883 183.555ZM291.206 195.785L290.791 196.085L290.796 196.092L291.206 195.785ZM292.728 186.842L292.456 186.409L292.449 186.414L292.728 186.842ZM302.561 188.576L302.156 188.89L302.561 188.576ZM300.979 197.508L301.258 197.937L301.265 197.932L300.979 197.508ZM293.715 181.762C294.056 179.836 294.751 178.38 295.766 177.348L295.036 176.631C293.839 177.847 293.074 179.513 292.707 181.584L293.715 181.762ZM295.771 177.343C296.847 176.218 298.345 175.029 300.28 173.78L299.725 172.921C297.75 174.196 296.181 175.434 295.031 176.636L295.771 177.343ZM300.281 173.779C301.64 172.899 302.685 172.134 303.401 171.487L302.715 170.728C302.058 171.322 301.066 172.052 299.724 172.921L300.281 173.779ZM303.411 171.478C304.174 170.751 304.656 169.906 304.826 168.946L303.819 168.768C303.691 169.487 303.331 170.142 302.706 170.737L303.411 171.478ZM304.826 168.946C305.063 167.612 304.663 166.437 303.669 165.469L302.955 166.202C303.719 166.946 303.993 167.785 303.819 168.768L304.826 168.946ZM303.686 165.486C302.758 164.495 301.45 163.875 299.815 163.587L299.637 164.594C301.119 164.856 302.202 165.399 302.938 166.185L303.686 165.486ZM299.815 163.587C298.133 163.29 296.516 163.418 294.973 163.977L295.322 164.939C296.687 164.444 298.122 164.327 299.637 164.594L299.815 163.587ZM294.967 163.979C293.468 164.545 292.171 165.474 291.078 166.753L291.856 167.417C292.844 166.261 294 165.438 295.328 164.936L294.967 163.979ZM291.784 166.683L283.7 160.312L283.066 161.116L291.15 167.487L291.784 166.683ZM283.773 161.045C285.842 158.613 288.463 156.897 291.649 155.894L291.342 154.918C287.98 155.976 285.193 157.798 282.994 160.383L283.773 161.045ZM291.649 155.894C294.827 154.894 298.496 154.749 302.672 155.486L302.851 154.478C298.553 153.72 294.712 153.858 291.342 154.918L291.649 155.894ZM302.672 155.486C307.362 156.313 310.894 157.951 313.321 160.361L314.043 159.635C311.422 157.034 307.674 155.329 302.851 154.478L302.672 155.486ZM313.327 160.367C315.773 162.72 316.69 165.562 316.089 168.954L317.097 169.132C317.756 165.409 316.732 162.222 314.037 159.63L313.327 160.367ZM316.089 168.954C315.809 170.535 315.294 171.875 314.553 172.988L315.405 173.554C316.236 172.306 316.797 170.828 317.097 169.132L316.089 168.954ZM314.556 172.983C313.803 174.085 312.972 174.983 312.065 175.684L312.69 176.493C313.694 175.718 314.596 174.737 315.401 173.559L314.556 172.983ZM312.064 175.685C311.177 176.374 310.026 177.145 308.607 177.999L309.134 178.876C310.574 178.009 311.762 177.214 312.691 176.493L312.064 175.685ZM308.611 177.997C307.034 178.924 305.822 179.768 304.995 180.53L305.688 181.282C306.437 180.592 307.578 179.79 309.129 178.878L308.611 177.997ZM305.004 180.522C304.13 181.29 303.59 182.279 303.379 183.466L304.387 183.643C304.559 182.672 304.99 181.896 305.679 181.29L305.004 180.522ZM303.972 183.051L293.3 181.169L293.122 182.177L303.794 184.058L303.972 183.051ZM295.833 197.936C293.986 197.61 292.595 196.786 291.616 195.478L290.796 196.092C291.95 197.633 293.584 198.578 295.655 198.943L295.833 197.936ZM291.621 195.485C290.641 194.131 290.301 192.66 290.588 191.04L289.58 190.862C289.244 192.759 289.652 194.51 290.792 196.085L291.621 195.485ZM290.588 191.04C290.883 189.371 291.689 188.129 293.007 187.271L292.449 186.414C290.878 187.437 289.922 188.933 289.58 190.862L290.588 191.04ZM293.001 187.275C294.36 186.42 295.969 186.14 297.863 186.475L298.042 185.467C295.939 185.096 294.065 185.398 292.456 186.409L293.001 187.275ZM297.863 186.475C299.758 186.809 301.173 187.621 302.156 188.89L302.965 188.262C301.802 186.762 300.144 185.838 298.042 185.467L297.863 186.475ZM302.156 188.89C303.138 190.155 303.484 191.599 303.19 193.262L304.198 193.439C304.54 191.505 304.132 189.766 302.965 188.262L302.156 188.89ZM303.19 193.262C302.903 194.882 302.078 196.148 300.692 197.085L301.265 197.932C302.877 196.842 303.862 195.336 304.198 193.439L303.19 193.262ZM300.699 197.08C299.332 197.972 297.723 198.269 295.833 197.936L295.655 198.943C297.762 199.315 299.643 198.991 301.258 197.936L300.699 197.08Z" fill="#271A58" mask="url(#path-22-outside-6_18933_365)"/>
<rect x="0.202599" y="0.28958" width="105.961" height="141.448" rx="18.775" transform="matrix(0.984808 0.173648 -0.174411 0.984673 370.438 117.113)" fill="#FFC700"/>
<rect x="0.202599" y="0.28958" width="105.961" height="141.448" rx="18.775" transform="matrix(0.984808 0.173648 -0.174411 0.984673 370.438 117.113)" stroke="#271A58" stroke-width="0.5"/>
<rect x="0.202599" y="0.28958" width="105.961" height="141.448" rx="18.775" transform="matrix(0.984808 0.173648 -0.174411 0.984673 -99.2682 184.663)" fill="#009EE4"/>
<rect x="0.202599" y="0.28958" width="105.961" height="141.448" rx="18.775" transform="matrix(0.984808 0.173648 -0.174411 0.984673 -99.2682 184.663)" stroke="#271A58" stroke-width="0.5"/>
<rect x="0.202599" y="0.28958" width="105.961" height="141.448" rx="18.775" transform="matrix(0.984808 0.173648 -0.174411 0.984673 11.7294 204.235)" fill="#99D100"/>
<rect x="0.202599" y="0.28958" width="105.961" height="141.448" rx="18.775" transform="matrix(0.984808 0.173648 -0.174411 0.984673 11.7294 204.235)" stroke="#271A58" stroke-width="0.5"/>
<mask id="path-27-outside-7_18933_365" maskUnits="userSpaceOnUse" x="28.4166" y="257.854" width="43.476" height="51.5463" fill="black">
<rect fill="white" x="28.4166" y="257.854" width="43.476" height="51.5463"/>
<path d="M45.5002 288.366C45.8542 286.368 46.5841 284.807 47.6899 283.683C48.8029 282.519 50.3368 281.306 52.2916 280.044C53.6418 279.169 54.6605 278.421 55.3475 277.801C56.0415 277.14 56.4629 276.39 56.6115 275.551C56.8168 274.392 56.48 273.385 55.6011 272.529C54.7692 271.64 53.5739 271.059 52.0151 270.784C50.4163 270.502 48.8901 270.624 47.4366 271.151C46.0231 271.685 44.7962 272.561 43.7562 273.779L35.6723 267.408C37.8066 264.899 40.5106 263.13 43.7845 262.1C47.0583 261.07 50.8136 260.928 55.0505 261.675C59.8069 262.514 63.4471 264.186 65.971 266.692C68.5419 269.165 69.5124 272.179 68.8824 275.736C68.5922 277.375 68.054 278.784 67.2679 279.964C66.4889 281.105 65.6218 282.044 64.6667 282.782C63.7586 283.487 62.5894 284.27 61.1592 285.131C59.595 286.05 58.4188 286.873 57.6306 287.6C56.8495 288.286 56.3634 289.169 56.1722 290.248L45.5002 288.366ZM48.0331 305.133C46.0745 304.788 44.5619 303.903 43.4952 302.478C42.4356 301.014 42.0616 299.403 42.373 297.644C42.6916 295.846 43.573 294.476 45.0174 293.536C46.5017 292.602 48.2431 292.312 50.2416 292.664C52.2401 293.017 53.7763 293.885 54.85 295.27C55.9238 296.654 56.3014 298.246 55.9828 300.044C55.6714 301.802 54.7664 303.188 53.2679 304.202C51.7765 305.175 50.0316 305.486 48.0331 305.133Z"/>
</mask>
<path d="M45.5002 288.366C45.8542 286.368 46.5841 284.807 47.6899 283.683C48.8029 282.519 50.3368 281.306 52.2916 280.044C53.6418 279.169 54.6605 278.421 55.3475 277.801C56.0415 277.14 56.4629 276.39 56.6115 275.551C56.8168 274.392 56.48 273.385 55.6011 272.529C54.7692 271.64 53.5739 271.059 52.0151 270.784C50.4163 270.502 48.8901 270.624 47.4366 271.151C46.0231 271.685 44.7962 272.561 43.7562 273.779L35.6723 267.408C37.8066 264.899 40.5106 263.13 43.7845 262.1C47.0583 261.07 50.8136 260.928 55.0505 261.675C59.8069 262.514 63.4471 264.186 65.971 266.692C68.5419 269.165 69.5124 272.179 68.8824 275.736C68.5922 277.375 68.054 278.784 67.2679 279.964C66.4889 281.105 65.6218 282.044 64.6667 282.782C63.7586 283.487 62.5894 284.27 61.1592 285.131C59.595 286.05 58.4188 286.873 57.6306 287.6C56.8495 288.286 56.3634 289.169 56.1722 290.248L45.5002 288.366ZM48.0331 305.133C46.0745 304.788 44.5619 303.903 43.4952 302.478C42.4356 301.014 42.0616 299.403 42.373 297.644C42.6916 295.846 43.573 294.476 45.0174 293.536C46.5017 292.602 48.2431 292.312 50.2416 292.664C52.2401 293.017 53.7763 293.885 54.85 295.27C55.9238 296.654 56.3014 298.246 55.9828 300.044C55.6714 301.802 54.7664 303.188 53.2679 304.202C51.7765 305.175 50.0316 305.486 48.0331 305.133Z" fill="white"/>
<path d="M45.5002 288.366L44.9964 288.277L44.9072 288.781L45.411 288.87L45.5002 288.366ZM47.6899 283.683L48.0546 284.042L48.0597 284.037L47.6899 283.683ZM52.2916 280.044L52.569 280.473L52.5696 280.473L52.2916 280.044ZM55.3475 277.801L55.6905 278.18L55.7001 278.171L55.3475 277.801ZM55.6011 272.529L55.2274 272.879L55.2355 272.887L55.244 272.896L55.6011 272.529ZM47.4366 271.151L47.2625 270.67L47.2561 270.673L47.4366 271.151ZM43.7562 273.779L43.4392 274.18L43.8255 274.485L44.1452 274.111L43.7562 273.779ZM35.6723 267.408L35.2826 267.076L34.9385 267.481L35.3554 267.809L35.6723 267.408ZM43.7845 262.1L43.9378 262.588L43.7845 262.1ZM65.971 266.692L65.6102 267.055L65.6161 267.061L65.971 266.692ZM67.2679 279.964L67.6904 280.253L67.6937 280.248L67.2679 279.964ZM64.6667 282.782L64.3539 282.378L64.3529 282.378L64.6667 282.782ZM61.1592 285.131L61.4183 285.572L61.4229 285.569L61.1592 285.131ZM57.6306 287.6L57.9684 287.984L57.9773 287.976L57.6306 287.6ZM56.1722 290.248L56.083 290.752L56.5869 290.841L56.6761 290.337L56.1722 290.248ZM43.4952 302.478L43.0805 302.779L43.0855 302.785L43.4952 302.478ZM45.0174 293.536L44.7451 293.103L44.7383 293.107L45.0174 293.536ZM54.85 295.27L54.4456 295.583L54.85 295.27ZM53.2679 304.202L53.5475 304.63L53.5544 304.625L53.2679 304.202ZM46.0041 288.455C46.3451 286.53 47.0396 285.073 48.0546 284.042L47.3253 283.325C46.1285 284.541 45.3632 286.207 44.9964 288.277L46.0041 288.455ZM48.0597 284.037C49.1357 282.911 50.6343 281.723 52.569 280.473L52.0141 279.614C50.0392 280.89 48.4701 282.128 47.3202 283.33L48.0597 284.037ZM52.5696 280.473C53.9287 279.593 54.9736 278.828 55.6904 278.18L55.0045 277.421C54.3473 278.015 53.355 278.746 52.0135 279.614L52.5696 280.473ZM55.7001 278.171C56.4631 277.445 56.9454 276.6 57.1154 275.64L56.1077 275.462C55.9804 276.181 55.62 276.835 54.9948 277.43L55.7001 278.171ZM57.1154 275.64C57.3517 274.306 56.9523 273.13 55.9582 272.162L55.244 272.896C56.0077 273.639 56.282 274.478 56.1077 275.462L57.1154 275.64ZM55.9748 272.179C55.0474 271.189 53.7394 270.568 52.1043 270.28L51.9258 271.288C53.4084 271.549 54.4911 272.092 55.2274 272.879L55.9748 272.179ZM52.1043 270.28C50.4219 269.983 48.8046 270.111 47.2625 270.67L47.6107 271.632C48.9756 271.137 50.4106 271.02 51.9258 271.288L52.1043 270.28ZM47.2561 270.673C45.7569 271.239 44.4598 272.167 43.3671 273.447L44.1452 274.111C45.1327 272.954 46.2892 272.131 47.6171 271.63L47.2561 270.673ZM44.0731 273.377L35.9893 267.006L35.3554 267.809L43.4392 274.18L44.0731 273.377ZM36.062 267.739C38.1311 265.307 40.7518 263.59 43.9378 262.588L43.6312 261.612C40.2695 262.67 37.4821 264.491 35.2826 267.076L36.062 267.739ZM43.9378 262.588C47.1158 261.588 50.7852 261.443 54.9612 262.179L55.1397 261.172C50.842 260.414 47.0008 260.552 43.6312 261.612L43.9378 262.588ZM54.9612 262.179C59.6509 263.006 63.1826 264.645 65.6103 267.055L66.3317 266.329C63.7115 263.728 59.9629 262.022 55.1397 261.172L54.9612 262.179ZM65.6161 267.061C68.0624 269.413 68.9793 272.256 68.3786 275.647L69.3862 275.825C70.0455 272.103 69.0215 268.916 66.3259 266.323L65.6161 267.061ZM68.3786 275.647C68.0985 277.228 67.5828 278.569 66.8421 279.681L67.6937 280.248C68.5252 278.999 69.0858 277.521 69.3862 275.825L68.3786 275.647ZM66.8454 279.676C66.0924 280.778 65.261 281.676 64.3539 282.378L64.9795 283.187C65.9826 282.411 66.8854 281.431 67.6904 280.253L66.8454 279.676ZM64.3529 282.378C63.4662 283.067 62.3154 283.838 60.8956 284.693L61.4229 285.569C62.8634 284.702 64.0509 283.908 64.9804 283.186L64.3529 282.378ZM60.9002 284.69C59.3229 285.617 58.111 286.461 57.2839 287.224L57.9773 287.976C58.7265 287.285 59.8671 286.484 61.4183 285.572L60.9002 284.69ZM57.2929 287.216C56.4195 287.983 55.8786 288.972 55.6684 290.159L56.6761 290.337C56.8481 289.366 57.2794 288.589 57.9683 287.984L57.2929 287.216ZM56.2615 289.744L45.5895 287.863L45.411 288.87L56.083 290.752L56.2615 289.744ZM48.1223 304.629C46.2755 304.304 44.8844 303.48 43.9049 302.172L43.0855 302.785C44.2394 304.326 45.8735 305.272 47.9438 305.637L48.1223 304.629ZM43.9099 302.178C42.9303 300.825 42.5899 299.353 42.8769 297.733L41.8692 297.555C41.5332 299.452 41.941 301.203 43.0806 302.779L43.9099 302.178ZM42.8769 297.733C43.1724 296.065 43.9785 294.823 45.2964 293.964L44.7383 293.107C43.1675 294.13 42.2108 295.627 41.8692 297.555L42.8769 297.733ZM45.2896 293.969C46.6496 293.114 48.2579 292.834 50.1524 293.168L50.3309 292.16C48.2283 291.79 46.3539 292.091 44.7452 293.103L45.2896 293.969ZM50.1524 293.168C52.0469 293.502 53.4618 294.315 54.4456 295.583L55.2545 294.956C54.0907 293.455 52.4334 292.531 50.3309 292.16L50.1524 293.168ZM54.4456 295.583C55.4267 296.848 55.7736 298.292 55.479 299.955L56.4867 300.133C56.8292 298.199 56.4208 296.46 55.2545 294.956L54.4456 295.583ZM55.479 299.955C55.192 301.575 54.3668 302.841 52.9814 303.778L53.5544 304.625C55.166 303.535 56.1507 302.03 56.4867 300.133L55.479 299.955ZM52.9884 303.773C51.6213 304.666 50.0121 304.963 48.1223 304.629L47.9438 305.637C50.051 306.009 51.9318 305.684 53.5474 304.63L52.9884 303.773Z" fill="#271A58" mask="url(#path-27-outside-7_18933_365)"/>
<rect x="0.202599" y="0.28958" width="105.961" height="141.448" rx="18.775" transform="matrix(0.984808 0.173648 -0.174411 0.984673 122.727 223.807)" fill="#009EE4"/>
<rect x="0.202599" y="0.28958" width="105.961" height="141.448" rx="18.775" transform="matrix(0.984808 0.173648 -0.174411 0.984673 122.727 223.807)" stroke="#271A58" stroke-width="0.5"/>
<mask id="path-30-outside-8_18933_365" maskUnits="userSpaceOnUse" x="139.415" y="277.426" width="43.476" height="51.5463" fill="black">
<rect fill="white" x="139.415" y="277.426" width="43.476" height="51.5463"/>
<path d="M156.498 307.938C156.852 305.94 157.582 304.379 158.688 303.255C159.801 302.092 161.335 300.878 163.29 299.616C164.64 298.741 165.658 297.993 166.345 297.373C167.04 296.712 167.461 295.962 167.61 295.123C167.815 293.964 167.478 292.957 166.599 292.101C165.767 291.213 164.572 290.631 163.013 290.356C161.414 290.074 159.888 290.197 158.435 290.723C157.021 291.257 155.794 292.133 154.754 293.351L146.67 286.98C148.805 284.471 151.509 282.702 154.783 281.672C158.056 280.642 161.812 280.5 166.049 281.247C170.805 282.086 174.445 283.758 176.969 286.264C179.54 288.737 180.51 291.752 179.88 295.308C179.59 296.947 179.052 298.356 178.266 299.537C177.487 300.677 176.62 301.616 175.665 302.354C174.757 303.06 173.587 303.843 172.157 304.703C170.593 305.622 169.417 306.445 168.629 307.172C167.848 307.858 167.361 308.741 167.17 309.82L156.498 307.938ZM159.031 324.705C157.073 324.36 155.56 323.475 154.493 322.051C153.434 320.586 153.06 318.975 153.371 317.216C153.69 315.418 154.571 314.048 156.015 313.108C157.5 312.175 159.241 311.884 161.24 312.236C163.238 312.589 164.774 313.457 165.848 314.842C166.922 316.226 167.299 317.818 166.981 319.616C166.669 321.375 165.764 322.76 164.266 323.774C162.775 324.747 161.03 325.058 159.031 324.705Z"/>
</mask>
<path d="M156.498 307.938C156.852 305.94 157.582 304.379 158.688 303.255C159.801 302.092 161.335 300.878 163.29 299.616C164.64 298.741 165.658 297.993 166.345 297.373C167.04 296.712 167.461 295.962 167.61 295.123C167.815 293.964 167.478 292.957 166.599 292.101C165.767 291.213 164.572 290.631 163.013 290.356C161.414 290.074 159.888 290.197 158.435 290.723C157.021 291.257 155.794 292.133 154.754 293.351L146.67 286.98C148.805 284.471 151.509 282.702 154.783 281.672C158.056 280.642 161.812 280.5 166.049 281.247C170.805 282.086 174.445 283.758 176.969 286.264C179.54 288.737 180.51 291.752 179.88 295.308C179.59 296.947 179.052 298.356 178.266 299.537C177.487 300.677 176.62 301.616 175.665 302.354C174.757 303.06 173.587 303.843 172.157 304.703C170.593 305.622 169.417 306.445 168.629 307.172C167.848 307.858 167.361 308.741 167.17 309.82L156.498 307.938ZM159.031 324.705C157.073 324.36 155.56 323.475 154.493 322.051C153.434 320.586 153.06 318.975 153.371 317.216C153.69 315.418 154.571 314.048 156.015 313.108C157.5 312.175 159.241 311.884 161.24 312.236C163.238 312.589 164.774 313.457 165.848 314.842C166.922 316.226 167.299 317.818 166.981 319.616C166.669 321.375 165.764 322.76 164.266 323.774C162.775 324.747 161.03 325.058 159.031 324.705Z" fill="white"/>
<path d="M156.498 307.938L155.994 307.85L155.905 308.353L156.409 308.442L156.498 307.938ZM158.688 303.255L159.053 303.614L159.058 303.609L158.688 303.255ZM163.29 299.616L163.567 300.045L163.568 300.045L163.29 299.616ZM166.345 297.373L166.689 297.752L166.698 297.743L166.345 297.373ZM166.599 292.101L166.225 292.451L166.234 292.459L166.242 292.468L166.599 292.101ZM158.435 290.723L158.261 290.242L158.254 290.245L158.435 290.723ZM154.754 293.351L154.437 293.753L154.824 294.057L155.143 293.683L154.754 293.351ZM146.67 286.98L146.281 286.649L145.937 287.053L146.353 287.382L146.67 286.98ZM154.783 281.672L154.936 282.16L154.783 281.672ZM176.969 286.264L176.608 286.627L176.614 286.633L176.969 286.264ZM178.266 299.537L178.688 299.825L178.692 299.82L178.266 299.537ZM175.665 302.354L175.352 301.95L175.351 301.95L175.665 302.354ZM172.157 304.703L172.416 305.144L172.421 305.141L172.157 304.703ZM168.629 307.172L168.966 307.556L168.975 307.548L168.629 307.172ZM167.17 309.82L167.081 310.324L167.585 310.413L167.674 309.909L167.17 309.82ZM154.493 322.051L154.079 322.351L154.084 322.357L154.493 322.051ZM156.015 313.108L155.743 312.675L155.736 312.679L156.015 313.108ZM165.848 314.842L165.444 315.155L165.848 314.842ZM164.266 323.774L164.545 324.202L164.552 324.197L164.266 323.774ZM157.002 308.027C157.343 306.102 158.038 304.645 159.053 303.614L158.323 302.897C157.127 304.113 156.361 305.779 155.994 307.85L157.002 308.027ZM159.058 303.609C160.134 302.484 161.632 301.295 163.567 300.045L163.012 299.186C161.037 300.462 159.468 301.7 158.318 302.902L159.058 303.609ZM163.568 300.045C164.927 299.165 165.972 298.4 166.688 297.752L166.003 296.993C165.345 297.587 164.353 298.318 163.012 299.187L163.568 300.045ZM166.698 297.743C167.461 297.017 167.943 296.172 168.113 295.212L167.106 295.034C166.978 295.753 166.618 296.407 165.993 297.002L166.698 297.743ZM168.113 295.212C168.35 293.878 167.95 292.702 166.956 291.734L166.242 292.468C167.006 293.211 167.28 294.05 167.106 295.034L168.113 295.212ZM166.973 291.751C166.045 290.761 164.737 290.141 163.102 289.852L162.924 290.86C164.406 291.121 165.489 291.664 166.225 292.451L166.973 291.751ZM163.102 289.852C161.42 289.556 159.803 289.684 158.261 290.242L158.609 291.204C159.974 290.71 161.409 290.593 162.924 290.86L163.102 289.852ZM158.254 290.245C156.755 290.811 155.458 291.739 154.365 293.019L155.143 293.683C156.131 292.526 157.287 291.703 158.615 291.202L158.254 290.245ZM155.071 292.949L146.987 286.578L146.353 287.382L154.437 293.753L155.071 292.949ZM147.06 287.311C149.129 284.879 151.75 283.162 154.936 282.16L154.629 281.184C151.268 282.242 148.48 284.063 146.281 286.649L147.06 287.311ZM154.936 282.16C158.114 281.16 161.783 281.015 165.959 281.751L166.138 280.744C161.84 279.986 157.999 280.124 154.629 281.184L154.936 282.16ZM165.959 281.751C170.649 282.578 174.181 284.217 176.608 286.627L177.33 285.901C174.71 283.3 170.961 281.594 166.138 280.744L165.959 281.751ZM176.614 286.633C179.06 288.986 179.977 291.828 179.377 295.22L180.384 295.397C181.044 291.675 180.02 288.488 177.324 285.895L176.614 286.633ZM179.377 295.22C179.097 296.801 178.581 298.141 177.84 299.253L178.692 299.82C179.523 298.572 180.084 297.093 180.384 295.397L179.377 295.22ZM177.843 299.248C177.09 300.35 176.259 301.249 175.352 301.95L175.978 302.759C176.981 301.983 177.883 301.003 178.688 299.825L177.843 299.248ZM175.351 301.95C174.464 302.639 173.313 303.411 171.894 304.265L172.421 305.141C173.861 304.275 175.049 303.48 175.978 302.758L175.351 301.95ZM171.898 304.262C170.321 305.189 169.109 306.034 168.282 306.796L168.975 307.548C169.725 306.857 170.865 306.056 172.416 305.144L171.898 304.262ZM168.291 306.788C167.418 307.555 166.877 308.545 166.666 309.731L167.674 309.909C167.846 308.938 168.277 308.161 168.966 307.556L168.291 306.788ZM167.26 309.316L156.588 307.435L156.409 308.442L167.081 310.324L167.26 309.316ZM159.12 324.202C157.274 323.876 155.882 323.052 154.903 321.744L154.084 322.357C155.237 323.898 156.872 324.844 158.942 325.209L159.12 324.202ZM154.908 321.751C153.928 320.397 153.588 318.925 153.875 317.305L152.867 317.127C152.531 319.024 152.939 320.776 154.079 322.351L154.908 321.751ZM153.875 317.305C154.17 315.637 154.977 314.395 156.294 313.537L155.736 312.679C154.166 313.702 153.209 315.199 152.867 317.127L153.875 317.305ZM156.288 313.541C157.648 312.686 159.256 312.406 161.15 312.74L161.329 311.733C159.226 311.362 157.352 311.663 155.743 312.675L156.288 313.541ZM161.15 312.74C163.045 313.074 164.46 313.887 165.444 315.155L166.253 314.528C165.089 313.028 163.431 312.103 161.329 311.733L161.15 312.74ZM165.444 315.155C166.425 316.42 166.772 317.864 166.477 319.527L167.485 319.705C167.827 317.771 167.419 316.032 166.253 314.528L165.444 315.155ZM166.477 319.527C166.19 321.147 165.365 322.413 163.979 323.35L164.552 324.197C166.164 323.108 167.149 321.602 167.485 319.705L166.477 319.527ZM163.986 323.346C162.619 324.238 161.01 324.535 159.12 324.202L158.942 325.209C161.049 325.581 162.93 325.257 164.545 324.202L163.986 323.346Z" fill="#271A58" mask="url(#path-30-outside-8_18933_365)"/>
<rect x="0.202599" y="0.28958" width="105.961" height="141.448" rx="18.775" transform="matrix(0.984808 0.173648 -0.174411 0.984673 233.725 243.379)" fill="#AD61FF"/>
<rect x="0.202599" y="0.28958" width="105.961" height="141.448" rx="18.775" transform="matrix(0.984808 0.173648 -0.174411 0.984673 233.725 243.379)" stroke="#271A58" stroke-width="0.5"/>
<mask id="path-33-outside-9_18933_365" maskUnits="userSpaceOnUse" x="254.644" y="302.037" width="35.9974" height="41.6423" fill="black">
<rect fill="white" x="254.644" y="302.037" width="35.9974" height="41.6423"/>
<path d="M268.583 327.194C268.869 325.582 269.458 324.323 270.35 323.416C271.248 322.477 272.485 321.499 274.062 320.48C275.151 319.775 275.973 319.171 276.527 318.671C277.087 318.138 277.427 317.533 277.547 316.855C277.713 315.92 277.441 315.108 276.732 314.418C276.061 313.701 275.097 313.232 273.839 313.01C272.549 312.782 271.318 312.881 270.145 313.306C269.005 313.737 268.015 314.443 267.176 315.426L260.655 310.286C262.376 308.262 264.558 306.835 267.199 306.004C269.84 305.173 272.87 305.059 276.288 305.661C280.125 306.338 283.062 307.687 285.098 309.709C287.172 311.703 287.955 314.136 287.447 317.005C287.213 318.327 286.778 319.464 286.144 320.416C285.516 321.336 284.816 322.094 284.046 322.689C283.313 323.258 282.37 323.89 281.216 324.584C279.954 325.326 279.005 325.99 278.369 326.576C277.739 327.13 277.347 327.842 277.193 328.713L268.583 327.194ZM270.627 340.721C269.047 340.442 267.826 339.729 266.966 338.579C266.111 337.398 265.809 336.098 266.06 334.679C266.317 333.228 267.028 332.124 268.194 331.365C269.391 330.612 270.796 330.377 272.408 330.662C274.021 330.946 275.26 331.647 276.126 332.764C276.992 333.881 277.297 335.164 277.04 336.615C276.789 338.034 276.059 339.152 274.85 339.97C273.647 340.755 272.239 341.005 270.627 340.721Z"/>
</mask>
<path d="M268.583 327.194C268.869 325.582 269.458 324.323 270.35 323.416C271.248 322.477 272.485 321.499 274.062 320.48C275.151 319.775 275.973 319.171 276.527 318.671C277.087 318.138 277.427 317.533 277.547 316.855C277.713 315.92 277.441 315.108 276.732 314.418C276.061 313.701 275.097 313.232 273.839 313.01C272.549 312.782 271.318 312.881 270.145 313.306C269.005 313.737 268.015 314.443 267.176 315.426L260.655 310.286C262.376 308.262 264.558 306.835 267.199 306.004C269.84 305.173 272.87 305.059 276.288 305.661C280.125 306.338 283.062 307.687 285.098 309.709C287.172 311.703 287.955 314.136 287.447 317.005C287.213 318.327 286.778 319.464 286.144 320.416C285.516 321.336 284.816 322.094 284.046 322.689C283.313 323.258 282.37 323.89 281.216 324.584C279.954 325.326 279.005 325.99 278.369 326.576C277.739 327.13 277.347 327.842 277.193 328.713L268.583 327.194ZM270.627 340.721C269.047 340.442 267.826 339.729 266.966 338.579C266.111 337.398 265.809 336.098 266.06 334.679C266.317 333.228 267.028 332.124 268.194 331.365C269.391 330.612 270.796 330.377 272.408 330.662C274.021 330.946 275.26 331.647 276.126 332.764C276.992 333.881 277.297 335.164 277.04 336.615C276.789 338.034 276.059 339.152 274.85 339.97C273.647 340.755 272.239 341.005 270.627 340.721Z" fill="white"/>
<path d="M268.583 327.194L268.079 327.106L267.99 327.609L268.494 327.698L268.583 327.194ZM270.35 323.416L270.714 323.775L270.719 323.77L270.35 323.416ZM274.062 320.48L274.34 320.91L274.34 320.909L274.062 320.48ZM276.527 318.671L276.871 319.05L276.88 319.041L276.527 318.671ZM276.732 314.418L276.358 314.767L276.367 314.776L276.375 314.784L276.732 314.418ZM270.145 313.306L269.971 312.825L269.965 312.828L270.145 313.306ZM267.176 315.426L266.859 315.828L267.246 316.132L267.565 315.758L267.176 315.426ZM260.655 310.286L260.265 309.955L259.921 310.359L260.338 310.688L260.655 310.286ZM267.199 306.004L267.352 306.492L267.352 306.492L267.199 306.004ZM285.098 309.709L284.737 310.072L284.743 310.077L285.098 309.709ZM286.144 320.416L286.567 320.704L286.57 320.699L286.144 320.416ZM284.046 322.689L283.733 322.285L283.732 322.286L284.046 322.689ZM281.216 324.584L281.475 325.025L281.48 325.023L281.216 324.584ZM278.369 326.576L278.707 326.96L278.716 326.952L278.369 326.576ZM277.193 328.713L277.104 329.216L277.607 329.305L277.697 328.801L277.193 328.713ZM266.966 338.579L266.551 338.879L266.556 338.886L266.966 338.579ZM268.194 331.365L267.921 330.932L267.915 330.936L268.194 331.365ZM276.126 332.764L275.722 333.077L276.126 332.764ZM274.85 339.97L275.129 340.398L275.136 340.393L274.85 339.97ZM269.087 327.283C269.36 325.744 269.913 324.589 270.714 323.775L269.985 323.058C269.002 324.057 268.378 325.421 268.079 327.106L269.087 327.283ZM270.719 323.77C271.58 322.869 272.783 321.915 274.34 320.91L273.785 320.051C272.187 321.082 270.915 322.086 269.98 323.063L270.719 323.77ZM274.34 320.909C275.438 320.198 276.286 319.578 276.87 319.05L276.185 318.291C275.66 318.765 274.865 319.351 273.784 320.051L274.34 320.909ZM276.88 319.041C277.509 318.442 277.91 317.742 278.051 316.944L277.043 316.767C276.945 317.323 276.666 317.833 276.175 318.3L276.88 319.041ZM278.051 316.944C278.248 315.834 277.913 314.853 277.089 314.051L276.375 314.784C276.969 315.362 277.178 316.007 277.043 316.767L278.051 316.944ZM277.106 314.068C276.339 313.249 275.262 312.741 273.928 312.506L273.75 313.514C274.931 313.722 275.783 314.153 276.358 314.767L277.106 314.068ZM273.928 312.506C272.555 312.264 271.233 312.368 269.971 312.825L270.319 313.787C271.403 313.394 272.544 313.301 273.75 313.514L273.928 312.506ZM269.965 312.828C268.739 313.291 267.679 314.05 266.787 315.094L267.565 315.758C268.352 314.837 269.271 314.183 270.326 313.785L269.965 312.828ZM267.493 315.024L260.971 309.884L260.338 310.688L266.859 315.828L267.493 315.024ZM261.044 310.617C262.701 308.67 264.799 307.295 267.352 306.492L267.046 305.516C264.317 306.375 262.052 307.854 260.265 309.955L261.044 310.617ZM267.352 306.492C269.898 305.691 272.841 305.573 276.199 306.165L276.377 305.158C272.898 304.544 269.783 304.655 267.046 305.516L267.352 306.492ZM276.199 306.165C279.969 306.83 282.797 308.146 284.737 310.072L285.459 309.345C283.326 307.228 280.281 305.846 276.377 305.158L276.199 306.165ZM284.743 310.077C286.693 311.952 287.422 314.212 286.943 316.916L287.951 317.094C288.488 314.059 287.652 311.455 285.453 309.34L284.743 310.077ZM286.943 316.916C286.719 318.181 286.307 319.249 285.718 320.133L286.57 320.699C287.25 319.679 287.706 318.473 287.951 317.094L286.943 316.916ZM285.722 320.128C285.119 321.01 284.455 321.726 283.733 322.285L284.359 323.094C285.177 322.461 285.912 321.662 286.567 320.704L285.722 320.128ZM283.732 322.286C283.021 322.838 282.096 323.458 280.952 324.146L281.48 325.023C282.644 324.322 283.606 323.679 284.359 323.093L283.732 322.286ZM280.957 324.143C279.682 324.893 278.697 325.578 278.023 326.2L278.716 326.952C279.313 326.402 280.226 325.759 281.475 325.025L280.957 324.143ZM278.032 326.192C277.309 326.827 276.862 327.645 276.689 328.624L277.697 328.801C277.832 328.039 278.169 327.433 278.707 326.96L278.032 326.192ZM277.282 328.209L268.672 326.691L268.494 327.698L277.104 329.216L277.282 328.209ZM270.716 340.217C269.248 339.958 268.149 339.305 267.375 338.273L266.556 338.886C267.504 340.152 268.846 340.927 270.537 341.225L270.716 340.217ZM267.38 338.279C266.606 337.209 266.337 336.048 266.564 334.768L265.557 334.59C265.281 336.147 265.616 337.587 266.551 338.879L267.38 338.279ZM266.564 334.768C266.798 333.447 267.434 332.47 268.473 331.794L267.915 330.936C266.623 331.777 265.837 333.01 265.557 334.59L266.564 334.768ZM268.466 331.798C269.539 331.123 270.811 330.9 272.319 331.166L272.498 330.158C270.781 329.855 269.243 330.101 267.921 330.932L268.466 331.798ZM272.319 331.166C273.827 331.431 274.945 332.076 275.722 333.077L276.531 332.45C275.574 331.217 274.214 330.461 272.498 330.158L272.319 331.166ZM275.722 333.077C276.495 334.075 276.769 335.211 276.536 336.527L277.544 336.704C277.825 335.118 277.489 333.686 276.531 332.45L275.722 333.077ZM276.536 336.527C276.309 337.807 275.659 338.805 274.563 339.546L275.136 340.393C276.458 339.499 277.268 338.261 277.544 336.704L276.536 336.527ZM274.57 339.541C273.491 340.246 272.219 340.482 270.716 340.217L270.537 341.225C272.258 341.528 273.802 341.264 275.129 340.398L274.57 339.541Z" fill="#271A58" mask="url(#path-33-outside-9_18933_365)"/>
<rect x="0.202599" y="0.28958" width="105.961" height="141.448" rx="18.775" transform="matrix(0.984808 0.173648 -0.174411 0.984673 344.723 262.951)" fill="#565EEF"/>
<rect x="0.202599" y="0.28958" width="105.961" height="141.448" rx="18.775" transform="matrix(0.984808 0.173648 -0.174411 0.984673 344.723 262.951)" stroke="#271A58" stroke-width="0.5"/>
<g filter="url(#filter0_d_18933_365)">
<rect width="138.133" height="184.177" rx="19.025" transform="matrix(0.984808 0.173648 -0.174411 0.984673 136.538 54.3776)" fill="#FFC700"/>
<rect x="-0.202599" y="-0.28958" width="138.633" height="184.677" rx="19.275" transform="matrix(0.984808 0.173648 -0.174411 0.984673 136.485 54.4083)" stroke="#271A58" stroke-width="0.5"/>
<rect x="-0.202599" y="-0.28958" width="138.633" height="184.677" rx="19.275" transform="matrix(0.984808 0.173648 -0.174411 0.984673 136.485 54.4083)" stroke="black" stroke-opacity="0.2" stroke-width="0.5"/>
</g>
<path d="M141.646 189.378L221.586 203.473L235.744 123.544L155.803 109.449L141.646 189.378Z" fill="white"/>
</g>
<defs>
<filter id="filter0_d_18933_365" x="62.4343" y="27.6622" width="252.119" height="289.303" filterUnits="userSpaceOnUse" color-interpolation-filters="sRGB">
<feFlood flood-opacity="0" result="BackgroundImageFix"/>
<feColorMatrix in="SourceAlpha" type="matrix" values="0 0 0 0 0 0 0 0 0 0 0 0 0 0 0 0 0 0 127 0" result="hardAlpha"/>
<feMorphology radius="9.15954" operator="erode" in="SourceAlpha" result="effect1_dropShadow_18933_365"/>
<feOffset dy="15.2659"/>
<feGaussianBlur stdDeviation="25.5704"/>
<feComposite in2="hardAlpha" operator="out"/>
<feColorMatrix type="matrix" values="0 0 0 0 0 0 0 0 0 0 0 0 0 0 0 0 0 0 0.3 0"/>
<feBlend mode="normal" in2="BackgroundImageFix" result="effect1_dropShadow_18933_365"/>
<feBlend mode="normal" in="SourceGraphic" in2="effect1_dropShadow_18933_365" result="shape"/>
</filter>
<clipPath id="clip0_18933_365">
<rect width="378" height="314" rx="30" fill="white"/>
</clipPath>
</defs>
</svg>
